<svg width="313" height="196" viewBox="0 0 313 196" fill="none" xmlns="http://www.w3.org/2000/svg">
<rect x="1" width="286" height="196" rx="19" fill="#656565"/>
<path d="M61.9 107.5C61.8667 107.433 61.8333 107.383 61.8 107.35C61.7667 107.317 61.7333 107.267 61.7 107.2C61.6 106.967 61.5333 106.817 61.5 106.75C61.4667 106.683 61.45 106.533 61.45 106.3V104.3C61.4167 104.133 61.4 103.95 61.4 103.75C61.4 103.583 61.4 103.433 61.4 103.3C61.4 103.133 61.4 102.983 61.4 102.85C61.4 102.75 61.3833 102.633 61.35 102.5V102.3C61.3167 102.133 61.3 101.967 61.3 101.8C61.3 101.667 61.3 101.533 61.3 101.4C61.2667 101.367 61.25 101.333 61.25 101.3C61.2833 101.267 61.3 101.233 61.3 101.2C61.3 101.033 61.3 100.883 61.3 100.75C61.3 100.617 61.2833 100.483 61.25 100.35V99.8C61.25 99.7333 61.25 99.6667 61.25 99.6C61.2833 99.5333 61.2833 99.4667 61.25 99.4C61.25 99.3333 61.2333 99.2667 61.2 99.2C61.2 99.1667 61.2 99.1167 61.2 99.05C61.2 98.6167 61.0333 98.25 60.7 97.95L60.4 97.5C60.2667 97.3667 60.1667 97.25 60.1 97.15C60.0333 97.0833 59.9667 97 59.9 96.9C59.8333 96.8 59.7667 96.7167 59.7 96.65L59.55 96.4C59.3167 95.9 59.1167 95.35 58.95 94.75C58.8833 94.4833 58.8167 94.2 58.75 93.9C58.6833 93.6 58.6167 93.3 58.55 93L58.35 92.35C58.2833 92.0167 58.2167 91.6833 58.15 91.35C58.0833 91.0167 58.0167 90.6833 57.95 90.35C57.8833 90.05 57.8167 89.75 57.75 89.45C57.7167 89.15 57.6667 88.85 57.6 88.55L57.45 87.75C57.45 87.5833 57.4167 87.4 57.35 87.2C57.3167 87.1 57.3 87 57.3 86.9C57.3 86.8 57.3 86.7 57.3 86.6C57.2667 86.5 57.25 86.4 57.25 86.3C57.25 86.1667 57.2333 86.05 57.2 85.95L57.05 84.9C57.0167 84.6333 56.9667 84.3667 56.9 84.1C56.8667 83.8333 56.8167 83.5833 56.75 83.35C56.7167 83.1167 56.6833 82.8833 56.65 82.65C56.6167 82.4167 56.5667 82.1833 56.5 81.95C56.4333 81.6833 56.3667 81.5 56.3 81.4C56.3 81.3333 56.2833 81.2833 56.25 81.25C56.25 81.2167 56.25 81.1833 56.25 81.15L55.95 80.15C55.95 80.1167 55.9333 80.1 55.9 80.1C55.8333 80.0333 55.8 80.05 55.8 80.15C55.7667 80.25 55.7333 80.35 55.7 80.45C55.6667 80.5167 55.6333 80.6 55.6 80.7C55.5 80.9333 55.4167 81.15 55.35 81.35C55.2167 81.6833 55.0833 82.0333 54.95 82.4C54.85 82.7333 54.75 83.0833 54.65 83.45L54.35 84.25C54.35 84.3167 54.3333 84.3667 54.3 84.4C54.2333 84.5333 54.1833 84.6833 54.15 84.85C54.1167 85.0167 54.0667 85.1833 54 85.35C53.9667 85.5167 53.9333 85.6667 53.9 85.8C53.8667 85.9333 53.8167 86.0833 53.75 86.25L53.5 87.1C53.5 87.1333 53.4833 87.1667 53.45 87.2C53.45 87.2333 53.45 87.2833 53.45 87.35C53.35 87.6833 53.25 88.0333 53.15 88.4C53.05 88.7667 52.9333 89.1167 52.8 89.45C52.7333 89.5833 52.6667 89.7333 52.6 89.9C52.5333 90.0333 52.4667 90.1667 52.4 90.3L52.1 91.05C52.0667 91.0833 52.05 91.1333 52.05 91.2C52.05 91.2333 52.0167 91.2833 51.95 91.35C51.9167 91.45 51.8667 91.55 51.8 91.65C51.7667 91.75 51.7333 91.85 51.7 91.95C51.6667 92.05 51.6333 92.15 51.6 92.25C51.5667 92.35 51.5167 92.45 51.45 92.55C51.4167 92.55 51.4 92.5833 51.4 92.65C51.3333 92.8167 51.25 93 51.15 93.2C51.05 93.3667 50.95 93.5333 50.85 93.7C50.8167 93.7667 50.7833 93.85 50.75 93.95C50.7167 94.05 50.6667 94.1333 50.6 94.2C50.5667 94.3 50.5167 94.4 50.45 94.5C50.3833 94.6 50.3333 94.7 50.3 94.8L50.1 95.1C50 95.2 49.9 95.3167 49.8 95.45C49.7333 95.55 49.6333 95.6333 49.5 95.7L49.35 95.85C49.2167 96.0167 49.0833 96.1667 48.95 96.3C48.8167 96.4333 48.6667 96.5833 48.5 96.75C48.4667 96.8167 48.3833 96.8833 48.25 96.95L47.95 97.15C47.75 97.3167 47.4333 97.3667 47 97.3C46.9333 97.3 46.8833 97.2833 46.85 97.25C46.7167 97.1833 46.5667 97.1333 46.4 97.1C46.2333 97.0667 46.0667 97.05 45.9 97.05C45.6667 96.9833 45.4333 96.8833 45.2 96.75C45 96.5833 44.8167 96.3833 44.65 96.15L44.55 96.05C44.5167 95.95 44.45 95.8833 44.35 95.85C44.2833 95.85 44.2333 95.8333 44.2 95.8C44.1333 95.7667 44.0833 95.7333 44.05 95.7C44.0167 95.6333 43.9667 95.5833 43.9 95.55L43.8 95.4C43.7667 95.3333 43.7333 95.2833 43.7 95.25C43.6667 95.2167 43.6167 95.1833 43.55 95.15C43.4167 95.05 43.3 94.95 43.2 94.85C43.1 94.7167 43 94.5833 42.9 94.45C42.6667 94.15 42.4667 93.8333 42.3 93.5C42.1333 93.1667 41.9667 92.8333 41.8 92.5L41.05 90.75C40.95 90.4833 40.85 90.2167 40.75 89.95C40.6833 89.65 40.6 89.3667 40.5 89.1L40.05 87.55C39.9833 87.2833 39.9167 87.0333 39.85 86.8C39.7833 86.5667 39.7167 86.3333 39.65 86.1C39.5833 85.8333 39.5 85.5667 39.4 85.3C39.3333 85.0333 39.2833 84.7667 39.25 84.5C39.25 84.4333 39.2333 84.3833 39.2 84.35L38.9 83.25C38.9 83.1833 38.8833 83.1333 38.85 83.1C38.85 83.0333 38.85 82.9833 38.85 82.95C38.8167 82.7833 38.7833 82.6167 38.75 82.45C38.75 82.25 38.7167 82.0667 38.65 81.9C38.65 81.8 38.6167 81.65 38.55 81.45C38.55 81.35 38.5167 81.2 38.45 81C38.3833 80.6667 38.3167 80.3833 38.25 80.15C38.2167 80.0833 38.2 80.0333 38.2 80C38.2 79.9333 38.1833 79.8833 38.15 79.85C38.1167 79.6833 38.0833 79.5167 38.05 79.35C38.05 79.1833 38.0167 79.0167 37.95 78.85C37.9167 78.6833 37.8833 78.5333 37.85 78.4C37.8167 78.2333 37.7833 78.0833 37.75 77.95C37.7167 77.7833 37.6833 77.6 37.65 77.4C37.6167 77.2 37.5667 77.0167 37.5 76.85C37.4333 76.65 37.3667 76.4667 37.3 76.3C37.2667 76.1 37.2167 75.9 37.15 75.7C37.1167 75.6 37.0833 75.5167 37.05 75.45C37.05 75.35 37.05 75.25 37.05 75.15L36.85 74.35C36.8167 74.2167 36.7667 74.0833 36.7 73.95C36.6667 73.8167 36.65 73.6833 36.65 73.55L36.5 72.9C36.4333 72.7667 36.4 72.65 36.4 72.55C36.4 72.2833 36.35 72 36.25 71.7C36.2167 71.4667 36.1833 71.25 36.15 71.05C36.1167 70.85 36.0833 70.6333 36.05 70.4C36.05 70.3333 36.0333 70.2667 36 70.2C36 70.1 36 70.0167 36 69.95C35.9 69.65 35.85 69.35 35.85 69.05C35.85 68.95 35.85 68.85 35.85 68.75C35.85 68.65 35.8333 68.55 35.8 68.45C35.7667 68.2833 35.75 68.1167 35.75 67.95C35.75 67.75 35.7333 67.5667 35.7 67.4C35.6667 67.3333 35.65 67.25 35.65 67.15C35.65 67.0833 35.6333 67.0167 35.6 66.95C35.6 66.85 35.6 66.7667 35.6 66.7C35.5667 66.4667 35.5333 66.25 35.5 66.05C35.5 65.85 35.5 65.65 35.5 65.45C35.5 65.35 35.5 65.25 35.5 65.15C35.5 65.0167 35.5167 64.9 35.55 64.8C35.5833 64.7 35.6 64.6 35.6 64.5C35.6 64.3667 35.6167 64.25 35.65 64.15V63.9C35.75 63.6 35.8833 63.4 36.05 63.3C36.15 63.2333 36.25 63.1667 36.35 63.1C36.45 63 36.5333 62.9 36.6 62.8C36.6 62.8 36.65 62.75 36.75 62.65C36.8167 62.6167 36.8833 62.5833 36.95 62.55C37.0167 62.5167 37.0833 62.5 37.15 62.5C37.2167 62.4667 37.25 62.4333 37.25 62.4C37.25 62.3333 37.2667 62.2833 37.3 62.25C37.4 62.15 37.5167 62.1 37.65 62.1H37.75C37.85 62.1333 37.95 62.1333 38.05 62.1C38.1833 62.0333 38.3333 62 38.5 62C38.5667 62 38.7 62.0333 38.9 62.1C39.1 62.1667 39.2167 62.2 39.25 62.2C39.4833 62.2333 39.65 62.3667 39.75 62.6C39.7833 62.6667 39.8333 62.7333 39.9 62.8C40 62.8333 40.0833 62.9 40.15 63C40.25 63.1 40.3333 63.2 40.4 63.3C40.4667 63.4333 40.5167 63.5667 40.55 63.7C40.6167 63.8 40.6667 63.8833 40.7 63.95C40.7333 64.0167 40.75 64.0833 40.75 64.15C40.75 64.1833 40.7667 64.2333 40.8 64.3C40.8333 64.7 40.8667 65.1 40.9 65.5C40.9667 65.9 41.05 66.3 41.15 66.7L41.2 67.05C41.2667 67.2167 41.3167 67.4 41.35 67.6C41.3833 67.7667 41.4 67.9333 41.4 68.1C41.3667 68.3333 41.4 68.5833 41.5 68.85C41.5 68.9167 41.5 69 41.5 69.1C41.5333 69.2 41.55 69.3 41.55 69.4V70C41.55 70.2 41.5667 70.35 41.6 70.45V70.6C41.6333 70.8667 41.6667 71.15 41.7 71.45C41.7667 71.7167 41.8167 71.9833 41.85 72.25C41.85 72.3167 41.85 72.4 41.85 72.5C41.8833 72.5667 41.9 72.6333 41.9 72.7C41.9 72.8333 41.9 72.95 41.9 73.05C41.9333 73.15 41.9667 73.2667 42 73.4L42.15 74.05C42.1833 74.15 42.2 74.2833 42.2 74.45C42.2 74.55 42.2 74.65 42.2 74.75C42.2333 74.8167 42.2667 74.9 42.3 75C42.4667 75.4 42.55 75.7667 42.55 76.1C42.5833 76.2333 42.6167 76.3833 42.65 76.55C42.6833 76.7167 42.7333 76.8833 42.8 77.05C42.8667 77.2167 42.9167 77.4 42.95 77.6C42.9833 77.8 43.0167 77.9833 43.05 78.15C43.05 78.25 43.0667 78.3167 43.1 78.35C43.1667 78.5833 43.2167 78.8167 43.25 79.05C43.3167 79.25 43.3833 79.4667 43.45 79.7L43.75 80.95C43.8167 81.2167 43.8833 81.45 43.95 81.65C44.0167 81.8833 44.0667 82.1167 44.1 82.35C44.1667 82.5833 44.2333 82.8167 44.3 83.05C44.3 83.0833 44.3 83.1333 44.3 83.2C44.3333 83.2333 44.35 83.2833 44.35 83.35C44.3833 83.55 44.4167 83.75 44.45 83.95C44.4833 84.1167 44.5167 84.2833 44.55 84.45C44.5833 84.55 44.6 84.65 44.6 84.75C44.6333 84.8167 44.65 84.9 44.65 85C44.6833 85.1 44.7 85.2 44.7 85.3C44.7333 85.4 44.75 85.5 44.75 85.6C44.8167 85.8 44.8667 86 44.9 86.2C44.9667 86.4 45.0333 86.6167 45.1 86.85C45.1667 86.9833 45.2 87.1333 45.2 87.3C45.2333 87.4333 45.2667 87.5833 45.3 87.75C45.3333 87.8833 45.3667 88.0333 45.4 88.2C45.4667 88.3333 45.5167 88.4833 45.55 88.65C45.5833 88.7833 45.6167 88.9167 45.65 89.05C45.7167 89.1833 45.7667 89.3167 45.8 89.45C45.8667 89.6833 45.95 89.9 46.05 90.1C46.15 90.3 46.2333 90.5167 46.3 90.75C46.3 90.75 46.3333 90.7833 46.4 90.85H46.5C46.5333 90.85 46.55 90.85 46.55 90.85C46.55 90.8167 46.55 90.8 46.55 90.8C46.75 90.5333 46.9167 90.3 47.05 90.1C47.2167 89.8333 47.3667 89.55 47.5 89.25C47.6333 88.95 47.7667 88.65 47.9 88.35C48.0333 88.05 48.15 87.75 48.25 87.45C48.3833 87.15 48.5 86.85 48.6 86.55C48.7667 85.95 48.9667 85.4167 49.2 84.95C49.2667 84.8833 49.3 84.8 49.3 84.7C49.3333 84.6 49.3667 84.5167 49.4 84.45L49.55 84C49.6167 83.8667 49.65 83.7667 49.65 83.7C49.75 83.4333 49.85 83.1667 49.95 82.9C50.05 82.6 50.1667 82.3167 50.3 82.05C50.3667 81.8833 50.4333 81.7167 50.5 81.55C50.5667 81.3833 50.6167 81.2167 50.65 81.05C50.6833 81.0167 50.7 80.9667 50.7 80.9C50.7333 80.7667 50.7667 80.65 50.8 80.55C50.8667 80.45 50.9167 80.3333 50.95 80.2L51.4 79.1C51.4 79.0667 51.4 79.0333 51.4 79C51.4333 78.9667 51.45 78.9333 51.45 78.9C51.5167 78.8333 51.55 78.7833 51.55 78.75C51.5833 78.6167 51.6167 78.5 51.65 78.4C51.7167 78.3 51.7667 78.1833 51.8 78.05C51.8667 77.9833 51.9 77.9 51.9 77.8L52.05 77.45C52.1167 77.25 52.15 77.1167 52.15 77.05C52.2167 76.8833 52.2833 76.7167 52.35 76.55C52.4167 76.3833 52.4833 76.2333 52.55 76.1C52.65 75.9333 52.7333 75.7667 52.8 75.6C52.8667 75.4667 52.9167 75.35 52.95 75.25C53.0167 75.15 53.0667 75.0333 53.1 74.9V74.8C53.2 74.7333 53.2667 74.65 53.3 74.55C53.3333 74.4167 53.3667 74.3 53.4 74.2L53.5 74.05C53.5667 73.95 53.6333 73.8333 53.7 73.7C53.7667 73.5667 53.85 73.4333 53.95 73.3C54.0167 73.1 54.1 72.9167 54.2 72.75C54.3333 72.55 54.45 72.35 54.55 72.15L54.7 71.8C54.7333 71.7333 54.7667 71.6833 54.8 71.65C54.8667 71.5833 54.9167 71.5333 54.95 71.5L55.1 71.3C55.3333 70.8667 55.7 70.6 56.2 70.5C56.2333 70.4667 56.3 70.45 56.4 70.45C56.6667 70.35 56.9667 70.3833 57.3 70.55C57.4667 70.6167 57.6333 70.7 57.8 70.8C58 70.9 58.1833 71 58.35 71.1C58.5167 71.2 58.65 71.35 58.75 71.55C58.85 71.75 58.95 71.95 59.05 72.15C59.15 72.3167 59.2167 72.5167 59.25 72.75C59.3167 73.0167 59.35 73.25 59.35 73.45V73.75C59.4167 73.95 59.45 74.1333 59.45 74.3C59.4833 74.3667 59.5 74.4333 59.5 74.5C59.5 74.5333 59.5167 74.5833 59.55 74.65C59.5833 74.7833 59.6333 74.9333 59.7 75.1C59.7667 75.2333 59.8167 75.3833 59.85 75.55L60.15 76.55C60.2167 76.6833 60.2833 76.8333 60.35 77C60.4167 77.1667 60.4667 77.3333 60.5 77.5L60.65 78.1C60.7833 78.5333 60.9167 78.95 61.05 79.35C61.1833 79.75 61.3 80.1667 61.4 80.6L61.7 82.25C61.7333 82.5167 61.7667 82.8 61.8 83.1C61.8333 83.3667 61.8833 83.6333 61.95 83.9C61.95 83.9333 61.95 83.9667 61.95 84C61.9833 84.0333 62 84.0833 62 84.15C62 84.2833 62 84.45 62 84.65C62.0333 84.8167 62.0667 84.9833 62.1 85.15V85.35C62.2 85.65 62.25 85.9833 62.25 86.35C62.2833 86.4167 62.3 86.5 62.3 86.6C62.3 86.6667 62.3167 86.7333 62.35 86.8C62.3833 86.9 62.4 87 62.4 87.1C62.4333 87.1667 62.4667 87.2333 62.5 87.3C62.5333 87.4 62.5333 87.5 62.5 87.6C62.4667 87.6667 62.4667 87.7333 62.5 87.8C62.5333 87.8667 62.55 87.95 62.55 88.05C62.55 88.1167 62.5667 88.1833 62.6 88.25C62.6 88.25 62.6 88.2667 62.6 88.3C62.6 88.3 62.6167 88.2833 62.65 88.25H62.7C62.7333 88.15 62.7667 88.0667 62.8 88C62.8333 87.9 62.8667 87.8167 62.9 87.75C62.9667 87.55 63.0333 87.35 63.1 87.15C63.1667 86.95 63.2333 86.75 63.3 86.55C63.4667 86.0833 63.6167 85.6167 63.75 85.15C63.8833 84.65 64.0167 84.15 64.15 83.65L64.3 83.2C64.3667 83.0333 64.4167 82.8833 64.45 82.75C64.5167 82.5833 64.5667 82.4167 64.6 82.25L64.85 81.55C64.9167 81.35 64.9833 81.15 65.05 80.95C65.1167 80.75 65.1667 80.5667 65.2 80.4C65.2333 80.2667 65.2667 80.15 65.3 80.05C65.3333 79.95 65.3667 79.8333 65.4 79.7C65.4667 79.5 65.5333 79.3667 65.6 79.3C65.6 79.2333 65.6 79.1833 65.6 79.15C65.6333 79.1167 65.65 79.0833 65.65 79.05C65.7833 78.85 65.8833 78.65 65.95 78.45C66.0167 78.2167 66.0667 78 66.1 77.8C66.1667 77.6667 66.2167 77.5333 66.25 77.4C66.2833 77.2667 66.3167 77.15 66.35 77.05L66.5 76.6C66.5 76.4 66.55 76.2 66.65 76C66.7167 75.8667 66.7667 75.7167 66.8 75.55C66.8667 75.3833 66.9167 75.2333 66.95 75.1C66.95 75 66.9667 74.9333 67 74.9C67.1 74.6 67.2 74.3 67.3 74C67.4 73.6667 67.5167 73.35 67.65 73.05C67.65 72.9833 67.65 72.9333 67.65 72.9C67.6833 72.8667 67.7 72.8333 67.7 72.8C67.8333 72.4667 67.95 72.1167 68.05 71.75L68.2 71.3C68.2667 71.0667 68.3333 70.85 68.4 70.65C68.4667 70.45 68.5333 70.2333 68.6 70C68.6333 69.9333 68.65 69.8667 68.65 69.8C68.65 69.7333 68.6667 69.6833 68.7 69.65C68.8333 69.2833 68.95 68.9 69.05 68.5C69.15 68.1 69.25 67.7167 69.35 67.35C69.45 67.0167 69.55 66.7 69.65 66.4C69.75 66.0667 69.8333 65.7333 69.9 65.4C69.9 65.3333 69.9 65.2667 69.9 65.2C69.9333 65.1 69.9667 65 70 64.9C70.0333 64.7333 70.0667 64.5667 70.1 64.4C70.1333 64.2333 70.1667 64.0667 70.2 63.9C70.2667 63.7333 70.3 63.5833 70.3 63.45C70.3 63.3167 70.3167 63.1833 70.35 63.05C70.3833 62.9833 70.3833 62.9333 70.35 62.9C70.35 62.8667 70.3667 62.8333 70.4 62.8C70.4667 62.6333 70.5 62.4667 70.5 62.3C70.5333 62.1 70.5667 61.9167 70.6 61.75C70.6333 61.4833 70.6667 61.2333 70.7 61C70.7667 60.7333 70.8167 60.4833 70.85 60.25V58.8C70.85 58.3333 71 57.9 71.3 57.5C71.3667 57.4 71.45 57.2833 71.55 57.15C71.65 57.0167 71.7333 56.8833 71.8 56.75C71.8333 56.6833 71.9167 56.5833 72.05 56.45C72.15 56.35 72.3 56.2333 72.5 56.1C72.7333 55.9333 73.0167 55.8167 73.35 55.75C73.5167 55.7167 73.75 55.7333 74.05 55.8C74.3833 55.8333 74.6333 55.9167 74.8 56.05C74.9 56.1167 75.0333 56.2333 75.2 56.4C75.5667 56.8333 75.8 57.3 75.9 57.8C75.9 57.9667 75.8833 58.1 75.85 58.2L75.7 58.55C75.7 58.65 75.7167 58.7167 75.75 58.75C75.8167 58.8833 75.85 58.9667 75.85 59C75.85 59.1 75.9 59.15 76 59.15C76.1 59.25 76.15 59.3667 76.15 59.5C76.15 59.5333 76.1333 59.5667 76.1 59.6C76.1 59.6333 76.1 59.6833 76.1 59.75C76.0667 59.7833 76.05 59.8167 76.05 59.85C76.05 59.8833 76.0333 59.9167 76 59.95C75.9667 60.05 75.95 60.2 75.95 60.4C76.0167 60.5 76.0167 60.6 75.95 60.7C75.8833 60.9 75.8167 61.0667 75.75 61.2L75.6 61.5C75.5333 61.6667 75.4667 61.85 75.4 62.05C75.3667 62.1833 75.35 62.3 75.35 62.4C75.35 62.5 75.3333 62.6 75.3 62.7C75.2667 62.7333 75.25 62.8 75.25 62.9C75.3167 63.0667 75.3 63.2167 75.2 63.35C75.2 63.5167 75.1833 63.6833 75.15 63.85C75.1167 64.0167 75.0833 64.1833 75.05 64.35C75.05 64.5833 75.0333 64.8167 75 65.05C74.9667 65.25 74.9333 65.4667 74.9 65.7C74.9 65.7333 74.8833 65.7667 74.85 65.8C74.85 65.8 74.85 65.8167 74.85 65.85C74.7833 66.0833 74.7333 66.3167 74.7 66.55C74.6667 66.7833 74.6333 67.0167 74.6 67.25C74.6 67.3167 74.5833 67.3667 74.55 67.4C74.5167 67.5 74.5 67.6 74.5 67.7C74.5 67.8 74.5 67.9 74.5 68C74.5 68.0667 74.4833 68.1333 74.45 68.2C74.4167 68.3 74.3833 68.4 74.35 68.5C74.3167 68.6 74.3 68.7167 74.3 68.85C74.3 68.9167 74.2833 68.9667 74.25 69C74.2167 69.0667 74.1833 69.15 74.15 69.25C74.1167 69.3167 74.1 69.3833 74.1 69.45C74.1 69.4833 74.0667 69.5667 74 69.7C73.8667 69.7333 73.8 69.8333 73.8 70C73.7667 70.1 73.7167 70.2167 73.65 70.35C73.6167 70.45 73.6167 70.5667 73.65 70.7C73.65 70.8333 73.6333 70.9167 73.6 70.95C73.4667 71.1833 73.4 71.45 73.4 71.75C73.4 71.85 73.3833 71.95 73.35 72.05C73.35 72.1167 73.35 72.1833 73.35 72.25C73.3167 72.2833 73.3 72.3333 73.3 72.4C73.3 72.4333 73.2667 72.4833 73.2 72.55C73.1333 72.65 73.0833 72.7667 73.05 72.9C73.0167 73.0333 72.9667 73.1667 72.9 73.3C72.8667 73.3333 72.85 73.3833 72.85 73.45C72.9167 73.6833 72.8667 73.8833 72.7 74.05L72.55 74.35C72.45 74.45 72.3667 74.5833 72.3 74.75C72.2 74.8833 72.15 75.0333 72.15 75.2C72.15 75.2667 72.1333 75.3167 72.1 75.35C72.1 75.5833 72.0333 75.7833 71.9 75.95C71.8333 76.0167 71.8333 76.1 71.9 76.2C71.9 76.2 71.9 76.2333 71.9 76.3C71.7667 76.3667 71.7 76.4333 71.7 76.5C71.6667 76.6 71.6333 76.7 71.6 76.8C71.6 76.8667 71.6 76.95 71.6 77.05V77.2C71.6667 77.3 71.6667 77.4167 71.6 77.55C71.5667 77.5833 71.55 77.6333 71.55 77.7C71.55 77.8 71.5167 77.9167 71.45 78.05C71.4167 78.0833 71.4 78.1667 71.4 78.3C71.3667 78.4 71.35 78.5 71.35 78.6C71.35 78.7 71.35 78.8 71.35 78.9C71.2833 79.1 71.2167 79.2333 71.15 79.3C71.0167 79.3667 70.95 79.45 70.95 79.55C70.8833 79.6167 70.85 79.6833 70.85 79.75C70.75 79.8833 70.7 80.05 70.7 80.25C70.7 80.3833 70.6667 80.4833 70.6 80.55C70.5667 80.65 70.5167 80.75 70.45 80.85C70.4167 80.95 70.4 81.05 70.4 81.15C70.3667 81.25 70.35 81.3667 70.35 81.5C70.2833 81.7 70.2167 81.8667 70.15 82C69.9833 82.2333 69.8667 82.5167 69.8 82.85C69.7667 82.9833 69.7333 83.1333 69.7 83.3C69.6667 83.4667 69.6167 83.6333 69.55 83.8C69.5167 83.9333 69.4667 84.0833 69.4 84.25C69.3667 84.4167 69.3333 84.5833 69.3 84.75C69.2667 84.8833 69.2333 85.0167 69.2 85.15C69.2 85.25 69.1667 85.3667 69.1 85.5C69.1 85.5333 69.0833 85.5667 69.05 85.6C69.05 85.6 69.05 85.6333 69.05 85.7C69.05 85.8333 69.0167 85.9667 68.95 86.1C68.9167 86.2333 68.8833 86.3667 68.85 86.5C68.8167 86.6667 68.7667 86.85 68.7 87.05C68.6667 87.25 68.65 87.4333 68.65 87.6C68.65 87.7 68.6333 87.8 68.6 87.9C68.6 87.9667 68.5833 88.05 68.55 88.15C68.45 88.35 68.4 88.55 68.4 88.75L68.3 89.15C68.2667 89.25 68.2333 89.3667 68.2 89.5C68.1667 89.6 68.1333 89.7 68.1 89.8C68.0333 90.1333 67.9667 90.4167 67.9 90.65C67.8667 90.7833 67.8333 90.9167 67.8 91.05C67.7667 91.1833 67.7333 91.3333 67.7 91.5C67.6667 91.7 67.6167 91.9 67.55 92.1C67.4833 92.3 67.4167 92.5 67.35 92.7C67.3167 92.7333 67.3 92.7833 67.3 92.85C67.3 92.9167 67.2833 92.9833 67.25 93.05L67.1 93.6C66.9333 93.8667 66.8333 94.1333 66.8 94.4C66.7333 94.5333 66.7 94.65 66.7 94.75C66.6667 94.7833 66.65 94.8167 66.65 94.85C66.65 94.8833 66.6333 94.9167 66.6 94.95C66.5333 95.3167 66.4333 95.65 66.3 95.95C66.2 96.1833 66.1 96.4167 66 96.65C65.9 96.8833 65.7833 97.1167 65.65 97.35C65.5833 97.4833 65.5333 97.5667 65.5 97.6C65.3333 97.8333 65.1667 98.1 65 98.4L64.85 98.75C64.7833 98.7833 64.7167 98.8667 64.65 99C64.4833 99.2 64.35 99.4167 64.25 99.65C64.1833 99.8833 64.1167 100.133 64.05 100.4C64.05 100.467 64.0333 100.517 64 100.55C64 100.617 64 100.683 64 100.75C64 100.883 64 101 64 101.1C64 101.233 63.9833 101.367 63.95 101.5C63.95 101.533 63.9333 101.583 63.9 101.65C63.9 101.75 63.9 101.833 63.9 101.9C63.9 102.133 63.9 102.35 63.9 102.55C63.9 102.783 63.8833 103.017 63.85 103.25V103.4C63.85 103.533 63.8333 103.667 63.8 103.8C63.8 103.967 63.7833 104.133 63.75 104.3C63.75 104.4 63.7333 104.5 63.7 104.6C63.7 104.7 63.7 104.8 63.7 104.9C63.6667 105 63.65 105.1 63.65 105.2C63.65 105.3 63.6333 105.4 63.6 105.5V105.7C63.6 106.1 63.5167 106.517 63.35 106.95L63.2 107.3C63.1 107.533 62.9 107.667 62.6 107.7C62.3 107.767 62.0667 107.7 61.9 107.5ZM85.6477 97.35C85.4477 97.35 85.3143 97.3333 85.2477 97.3C85.081 97.2333 84.9143 97.2 84.7477 97.2C84.6143 97.2333 84.4643 97.25 84.2977 97.25C84.2643 97.25 84.231 97.25 84.1977 97.25C84.1643 97.2833 84.131 97.3 84.0977 97.3C83.8643 97.3333 83.631 97.35 83.3977 97.35C83.1977 97.35 82.9977 97.3167 82.7977 97.25C82.7643 97.2167 82.731 97.2 82.6977 97.2C82.4643 97.2333 82.2643 97.1667 82.0977 97C81.931 96.8333 81.7643 96.6833 81.5977 96.55C81.431 96.3833 81.3477 96.2 81.3477 96L81.1977 95.6C81.0977 95.3667 81.0643 95.15 81.0977 94.95C81.131 94.8833 81.131 94.8167 81.0977 94.75C81.0977 94.6833 81.0977 94.6167 81.0977 94.55C81.0643 94.4833 81.0477 94.4167 81.0477 94.35C81.0477 94.25 81.031 94.1667 80.9977 94.1C80.931 93.8 80.881 93.5 80.8477 93.2C80.8477 92.8667 80.8643 92.55 80.8977 92.25C80.931 92.05 81.0477 91.7167 81.2477 91.25C81.4477 90.75 81.5643 90.45 81.5977 90.35C81.6977 90.1833 81.7477 90.05 81.7477 89.95C81.7143 89.5833 81.6977 89.2167 81.6977 88.85C81.731 88.45 81.7477 88.0667 81.7477 87.7C81.7477 87.4667 81.7977 87.2833 81.8977 87.15C82.031 86.9167 82.0477 86.6667 81.9477 86.4L81.7977 85.85C81.5977 85.4833 81.6143 85.1667 81.8477 84.9C81.8477 84.8667 81.8477 84.85 81.8477 84.85C81.881 84.8167 81.8977 84.7833 81.8977 84.75C81.9643 84.6833 81.981 84.6 81.9477 84.5C81.9143 84.3667 81.8977 84.2667 81.8977 84.2C81.8977 84.0667 81.9143 83.9333 81.9477 83.8C82.0143 83.6333 82.031 83.4833 81.9977 83.35C81.9977 83.35 81.9643 83.3167 81.8977 83.25C81.8643 83.1833 81.8477 83.05 81.8477 82.85C81.881 82.65 81.8977 82.5333 81.8977 82.5V81.1C81.931 80.9333 81.9477 80.7833 81.9477 80.65C81.9477 80.4833 81.9643 80.3167 81.9977 80.15C82.031 79.95 82.031 79.75 81.9977 79.55C81.9977 79.3167 81.9977 79.0833 81.9977 78.85C81.9643 78.6833 81.931 78.5 81.8977 78.3C81.8977 78.1 81.8977 77.9 81.8977 77.7C81.8643 77.6333 81.8477 77.55 81.8477 77.45C81.8477 77.35 81.8477 77.2667 81.8477 77.2C81.8143 77.0333 81.781 76.8667 81.7477 76.7C81.7477 76.5333 81.7477 76.3667 81.7477 76.2C81.7477 76.1333 81.681 75.9167 81.5477 75.55C81.4143 75.15 81.3643 74.8167 81.3977 74.55C81.431 74.4833 81.4477 74.4 81.4477 74.3C81.4477 74.2 81.4143 74.1167 81.3477 74.05C81.281 74.0167 81.2477 73.95 81.2477 73.85V73.7C81.3477 73.3 81.2977 72.9 81.0977 72.5C80.9643 72.3 80.9143 72.1 80.9477 71.9C80.9477 71.6333 80.831 71.4333 80.5977 71.3C80.431 71.1333 80.281 70.9333 80.1477 70.7C80.0143 70.4667 79.931 70.2333 79.8977 70C79.8643 69.8333 79.8477 69.6667 79.8477 69.5C79.8477 69.3333 79.8477 69.1833 79.8477 69.05C79.8477 68.9167 79.8643 68.8333 79.8977 68.8C80.031 68.6667 80.0977 68.5167 80.0977 68.35C80.0977 68.15 80.1143 68 80.1477 67.9C80.181 67.8667 80.2143 67.85 80.2477 67.85C80.281 67.85 80.3143 67.8333 80.3477 67.8C80.481 67.7667 80.5477 67.65 80.5477 67.45C80.481 67.3167 80.4477 67.2 80.4477 67.1C80.4143 66.9667 80.4643 66.85 80.5977 66.75C80.6643 66.6167 80.7477 66.5833 80.8477 66.65C81.081 66.75 81.3477 66.7167 81.6477 66.55C81.781 66.4833 81.8643 66.45 81.8977 66.45C81.9977 66.45 82.0477 66.45 82.0477 66.45C82.081 66.4167 82.181 66.4 82.3477 66.4C82.5477 66.4333 82.731 66.3667 82.8977 66.2C83.131 65.9667 83.4143 65.85 83.7477 65.85H86.8477C87.6143 65.8833 88.381 65.8833 89.1477 65.85C89.9143 65.8167 90.6643 65.8 91.3977 65.8C91.5643 65.8 91.6977 65.8 91.7977 65.8C91.931 65.7667 92.0643 65.7333 92.1977 65.7C92.3977 65.6 92.631 65.55 92.8977 65.55H94.0477C94.3143 65.55 94.5477 65.55 94.7477 65.55C94.981 65.5167 95.2143 65.4833 95.4477 65.45C95.581 65.4167 95.6977 65.4 95.7977 65.4C95.931 65.4 96.0643 65.4 96.1977 65.4C96.331 65.4 96.4643 65.4 96.5977 65.4C96.731 65.4 96.8643 65.3833 96.9977 65.35C97.2643 65.3167 97.5477 65.3 97.8477 65.3C98.1477 65.2667 98.431 65.25 98.6977 65.25C98.831 65.25 98.9477 65.25 99.0477 65.25C99.181 65.2167 99.3143 65.1833 99.4477 65.15C99.7143 65.0833 99.9643 65.05 100.198 65.05C100.464 65.0167 100.714 64.9833 100.948 64.95C101.214 64.9167 101.464 64.8833 101.698 64.85C101.964 64.8167 102.214 64.7833 102.448 64.75C102.748 64.75 102.964 64.7833 103.098 64.85C103.298 64.9833 103.481 65.1 103.648 65.2C103.848 65.3 104.031 65.4333 104.198 65.6C104.331 65.7333 104.414 65.85 104.448 65.95C104.481 66.0833 104.514 66.2167 104.548 66.35C104.581 66.4833 104.614 66.6333 104.648 66.8V67.15C104.614 67.3167 104.581 67.5 104.548 67.7C104.548 67.8667 104.531 68.05 104.498 68.25C104.431 68.3833 104.348 68.5 104.248 68.6L103.348 69.5C103.014 69.6 102.681 69.6667 102.348 69.7C102.048 69.7333 101.731 69.7333 101.398 69.7H101.048C100.881 69.7333 100.714 69.75 100.548 69.75C100.381 69.75 100.214 69.7333 100.048 69.7C99.8477 69.6667 99.6477 69.6667 99.4477 69.7C99.2477 69.7 99.0477 69.7 98.8477 69.7C98.7143 69.7 98.581 69.7167 98.4477 69.75C98.3477 69.75 98.231 69.7333 98.0977 69.7C97.931 69.6667 97.7643 69.6667 97.5977 69.7C97.4643 69.7 97.3143 69.7167 97.1477 69.75C97.0143 69.75 96.8643 69.7667 96.6977 69.8C96.5643 69.8 96.4143 69.8 96.2477 69.8C95.8143 69.8667 95.3477 69.9 94.8477 69.9C94.381 69.9 93.9143 69.9333 93.4477 70C93.1477 69.9667 92.8643 69.9833 92.5977 70.05C92.331 70.0833 92.0477 70.1167 91.7477 70.15C91.481 70.1833 91.1977 70.2 90.8977 70.2C90.5977 70.2 90.3143 70.2333 90.0477 70.3C89.7143 70.3 89.381 70.35 89.0477 70.45C88.7477 70.5167 88.431 70.5667 88.0977 70.6L87.7477 70.65C87.5143 70.65 87.2977 70.6833 87.0977 70.75C86.8977 70.7833 86.681 70.8333 86.4477 70.9C86.3143 70.9333 86.181 70.9667 86.0477 71C85.9143 71 85.7643 71.0167 85.5977 71.05C85.4977 71.05 85.381 71.0833 85.2477 71.15C85.1477 71.1833 85.0977 71.2833 85.0977 71.45L85.2477 71.9C85.281 71.9667 85.2643 72.1333 85.1977 72.4C85.1643 72.6667 85.131 72.8667 85.0977 73C85.0977 73.1 85.1143 73.2 85.1477 73.3C85.181 73.4 85.2143 73.5 85.2477 73.6C85.3477 73.8667 85.3977 74.1667 85.3977 74.5C85.3977 74.8 85.431 75.0833 85.4977 75.35C85.531 75.4833 85.5477 75.6333 85.5477 75.8C85.5477 75.9333 85.5643 76.0833 85.5977 76.25C85.5977 76.3167 85.5977 76.4 85.5977 76.5C85.631 76.5667 85.6477 76.65 85.6477 76.75C85.6477 76.85 85.631 76.9167 85.5977 76.95C85.4977 77.0833 85.4477 77.2333 85.4477 77.4C85.4477 77.5667 85.4477 77.7333 85.4477 77.9C85.6143 78.2333 85.6977 78.5667 85.6977 78.9C85.6977 79.2333 85.6977 79.5667 85.6977 79.9C85.6977 80 85.781 80.0333 85.9477 80H85.9977C86.0643 79.8667 86.131 79.7667 86.1977 79.7C86.2977 79.7 86.4143 79.6667 86.5477 79.6C86.6477 79.5333 86.781 79.5 86.9477 79.5C87.2143 79.5333 87.4643 79.5333 87.6977 79.5C87.931 79.4333 88.1643 79.3667 88.3977 79.3C89.9643 78.9 91.431 78.3833 92.7977 77.75C93.1643 77.5833 93.5477 77.45 93.9477 77.35C94.3477 77.2167 94.7477 77.1333 95.1477 77.1H95.2977C95.5977 77.0667 95.8977 77.0333 96.1977 77C96.4977 76.9667 96.7977 76.95 97.0977 76.95C97.4977 76.9167 97.881 76.8667 98.2477 76.8C98.6477 76.7333 99.0477 76.6833 99.4477 76.65C99.681 76.5833 99.8977 76.5333 100.098 76.5C100.298 76.4333 100.514 76.35 100.748 76.25C101.181 76.0833 101.581 76 101.948 76C102.214 76.0333 102.464 76.1 102.698 76.2C102.931 76.2667 103.164 76.3667 103.398 76.5C103.898 76.8333 104.148 77.3333 104.148 78C104.148 78.2667 104.114 78.5333 104.048 78.8C104.014 79.0667 103.998 79.3333 103.998 79.6C103.998 79.6667 103.964 79.7333 103.898 79.8L103.748 80.05C103.714 80.1833 103.681 80.3167 103.648 80.45C103.614 80.5833 103.531 80.6833 103.398 80.75C103.198 80.9167 102.981 81.1 102.748 81.3C102.548 81.4667 102.314 81.5833 102.048 81.65C101.914 81.6833 101.781 81.7167 101.648 81.75C101.548 81.7833 101.431 81.8 101.298 81.8C100.764 81.8 100.214 81.8333 99.6477 81.9C99.1143 81.9667 98.5643 82.0333 97.9977 82.1C97.5643 82.1333 97.131 82.1833 96.6977 82.25C96.2977 82.3167 95.881 82.35 95.4477 82.35C95.0477 82.35 94.5977 82.4333 94.0977 82.6C93.7643 82.6667 93.4143 82.7333 93.0477 82.8C92.681 82.8667 92.3143 82.9167 91.9477 82.95C91.681 82.9833 91.3977 83.0333 91.0977 83.1C90.831 83.1333 90.5643 83.1667 90.2977 83.2L89.4477 83.35C89.381 83.3833 89.281 83.4 89.1477 83.4C88.9143 83.4667 88.681 83.5167 88.4477 83.55C88.2143 83.5833 87.981 83.6333 87.7477 83.7C87.5143 83.7333 87.281 83.7833 87.0477 83.85C86.8477 83.9167 86.631 83.9833 86.3977 84.05C86.231 84.0833 86.0977 84.15 85.9977 84.25C85.8977 84.3167 85.8143 84.4167 85.7477 84.55C85.7143 84.65 85.7143 84.75 85.7477 84.85C85.781 84.9833 85.7643 85.1167 85.6977 85.25C85.731 85.5833 85.7477 85.9167 85.7477 86.25C85.781 86.5833 85.781 86.9167 85.7477 87.25C85.8143 87.5167 85.831 87.7833 85.7977 88.05C85.7977 88.3167 85.781 88.5833 85.7477 88.85C85.681 89.25 85.6977 89.5833 85.7977 89.85C85.8977 90.2833 85.8643 90.7333 85.6977 91.2C85.631 91.4 85.631 91.5333 85.6977 91.6C85.7643 91.7 85.7643 91.8167 85.6977 91.95V92.25C85.6643 92.5167 85.781 92.65 86.0477 92.65H86.1477C86.381 92.65 86.6143 92.7333 86.8477 92.9C87.0143 93.0667 87.2143 93.1167 87.4477 93.05L88.8477 92.9C89.0477 92.8667 89.2477 92.85 89.4477 92.85C89.6477 92.8167 89.8477 92.8 90.0477 92.8C90.1143 92.7667 90.2143 92.7833 90.3477 92.85C90.5143 92.95 90.6643 92.9667 90.7977 92.9C90.8643 92.8333 90.9477 92.7833 91.0477 92.75C91.181 92.7167 91.281 92.6667 91.3477 92.6C91.5477 92.4 91.7977 92.3333 92.0977 92.4C92.3643 92.4667 92.581 92.45 92.7477 92.35C93.0477 92.25 93.331 92.2167 93.5977 92.25C93.7643 92.2833 93.931 92.2667 94.0977 92.2C94.2643 92.1333 94.431 92.1 94.5977 92.1C94.6643 92.1 94.7143 92.1167 94.7477 92.15C94.781 92.15 94.8143 92.1333 94.8477 92.1C94.9143 92.1 94.981 92.0833 95.0477 92.05C95.1143 92.0167 95.1643 92 95.1977 92C95.431 91.9 95.6477 91.8667 95.8477 91.9C96.0143 91.9 96.0977 91.9 96.0977 91.9C96.231 91.8667 96.3477 91.8667 96.4477 91.9C96.581 91.9333 96.6977 91.9833 96.7977 92.05C96.9643 92.0833 97.0977 92.1333 97.1977 92.2C97.331 92.2667 97.4643 92.3167 97.5977 92.35C97.6643 92.35 97.7143 92.3667 97.7477 92.4C97.9143 92.5333 98.1143 92.65 98.3477 92.75C98.6143 92.85 98.7643 92.9667 98.7977 93.1C98.8643 93.3 98.8977 93.5 98.8977 93.7C98.8977 93.8667 98.9143 94.05 98.9477 94.25C98.9477 94.35 98.931 94.45 98.8977 94.55C98.8977 94.65 98.881 94.75 98.8477 94.85C98.781 94.9833 98.6977 95.1333 98.5977 95.3C98.531 95.4667 98.431 95.6167 98.2977 95.75C98.231 95.8167 98.1643 95.8833 98.0977 95.95C98.0643 96.0167 98.0143 96.0833 97.9477 96.15C97.8143 96.2833 97.6643 96.4 97.4977 96.5C97.331 96.6 97.1477 96.65 96.9477 96.65C96.8143 96.65 96.7143 96.6667 96.6477 96.7C96.5143 96.7667 96.381 96.8 96.2477 96.8C96.1143 96.8 95.9643 96.8 95.7977 96.8C95.5643 96.8333 95.331 96.8667 95.0977 96.9C94.8977 96.9 94.681 96.8833 94.4477 96.85C94.3143 96.8167 94.1977 96.8167 94.0977 96.85C93.7643 96.95 93.431 96.9667 93.0977 96.9C92.7643 96.9 92.431 96.9167 92.0977 96.95C91.7977 96.95 91.4977 96.95 91.1977 96.95H90.5477C90.4477 96.95 90.3643 96.9667 90.2977 97C90.1643 97.0667 89.9977 97.1 89.7977 97.1C89.631 97.1 89.4643 97.0833 89.2977 97.05H88.7977C88.7643 97.05 88.7143 97.05 88.6477 97.05C88.581 97.0833 88.5143 97.0833 88.4477 97.05C88.3477 97.0167 88.2477 97 88.1477 97C88.081 97.0333 87.9977 97.0667 87.8977 97.1C87.831 97.1 87.7643 97.1 87.6977 97.1C87.6643 97.1333 87.6143 97.15 87.5477 97.15C87.2143 97.1167 86.8977 97.1167 86.5977 97.15C86.2977 97.2167 85.981 97.2833 85.6477 97.35ZM111.943 97.5C111.677 97.4667 111.41 97.4 111.143 97.3C110.877 97.2333 110.643 97.1167 110.443 96.95C110.41 96.8833 110.36 96.8333 110.293 96.8C110.227 96.7333 110.177 96.6833 110.143 96.65C110.01 96.45 109.893 96.2333 109.793 96C109.693 95.7667 109.627 95.5333 109.593 95.3C109.56 94.8 109.61 94.3 109.743 93.8C109.91 93.2667 110.027 92.7333 110.093 92.2C110.16 91.6333 110.193 91.0667 110.193 90.5C110.227 89.8333 110.243 89.1667 110.243 88.5C110.243 87.8333 110.243 87.1833 110.243 86.55C110.243 86.3833 110.227 86.2167 110.193 86.05C110.193 85.85 110.177 85.6667 110.143 85.5C110.11 85.3333 110.093 85.15 110.093 84.95C110.093 84.75 110.093 84.5667 110.093 84.4C110.093 84.2333 110.077 84.0667 110.043 83.9C110.043 83.7 110.027 83.5167 109.993 83.35C109.96 83.2167 109.943 83.0833 109.943 82.95C109.977 82.8167 109.977 82.6833 109.943 82.55C109.943 82.3167 109.943 82.0833 109.943 81.85C109.943 81.6167 109.927 81.3833 109.893 81.15C109.86 81.1167 109.843 81.05 109.843 80.95V78.25C109.81 78.0833 109.793 77.9333 109.793 77.8C109.793 77.6333 109.793 77.4667 109.793 77.3C109.827 77.2 109.843 77.05 109.843 76.85V76.25C109.843 76.05 109.827 75.8667 109.793 75.7C109.793 75.5 109.81 75.3 109.843 75.1V74.85C109.81 74.5833 109.793 74.3333 109.793 74.1C109.827 73.8333 109.86 73.5833 109.893 73.35C109.927 73.2167 109.943 73 109.943 72.7C109.877 72.5 109.843 72.35 109.843 72.25C109.81 72.0833 109.777 71.9333 109.743 71.8C109.743 71.6333 109.76 71.4833 109.793 71.35C109.827 71.05 109.76 70.7333 109.593 70.4C109.493 70.2667 109.41 70.1333 109.343 70C109.31 69.8333 109.26 69.6833 109.193 69.55V69.4C109.26 69.3333 109.327 69.3333 109.393 69.4C109.493 69.4333 109.543 69.4167 109.543 69.35C109.577 69.2833 109.593 69.2167 109.593 69.15C109.593 69.05 109.61 68.9833 109.643 68.95C109.677 68.85 109.66 68.7167 109.593 68.55C109.56 68.45 109.61 68.3833 109.743 68.35C109.81 68.2167 109.927 68.1333 110.093 68.1C110.26 68.0333 110.36 67.9833 110.393 67.95C110.493 67.8167 110.61 67.75 110.743 67.75C110.877 67.75 111.01 67.75 111.143 67.75C111.243 67.75 111.393 67.7167 111.593 67.65C111.727 67.6167 111.86 67.6167 111.993 67.65C112.06 67.6833 112.127 67.7333 112.193 67.8C112.26 67.8333 112.327 67.8667 112.393 67.9C112.727 68.0333 113.01 68.3 113.243 68.7C113.31 68.8667 113.377 69.0333 113.443 69.2C113.51 69.3667 113.527 69.55 113.493 69.75C113.493 69.85 113.56 69.9 113.693 69.9H114.093C114.26 69.8333 114.427 69.8 114.593 69.8C114.793 69.8 114.96 69.8 115.093 69.8H116.393C116.76 69.7667 117.127 69.7833 117.493 69.85C117.893 69.8833 118.277 69.9333 118.643 70C119.743 70.1333 120.793 70.3833 121.793 70.75C122.893 71.0833 123.927 71.6333 124.893 72.4C125.26 72.6667 125.66 73.05 126.093 73.55C126.227 73.6833 126.343 73.8333 126.443 74C126.577 74.1333 126.693 74.2833 126.793 74.45C127.16 75.0167 127.343 75.6 127.343 76.2C127.41 76.6 127.41 76.9833 127.343 77.35C127.343 77.65 127.277 77.9167 127.143 78.15C127.143 78.15 127.127 78.1667 127.093 78.2C127.093 78.2 127.093 78.2167 127.093 78.25C127.027 78.35 126.977 78.4667 126.943 78.6C126.943 78.7333 126.893 78.8333 126.793 78.9L126.343 79.45C126.177 79.65 125.993 79.8667 125.793 80.1C125.627 80.3 125.427 80.4833 125.193 80.65L124.693 81C124.593 81.0333 124.493 81.0833 124.393 81.15C124.293 81.2167 124.21 81.3 124.143 81.4C124.043 81.5 123.927 81.5833 123.793 81.65C123.66 81.75 123.51 81.85 123.343 81.95C123.21 82.0167 123.06 82.0833 122.893 82.15C122.727 82.2167 122.727 82.3 122.893 82.4L123.243 82.55C123.41 82.65 123.593 82.75 123.793 82.85C123.993 82.9167 124.177 83 124.343 83.1C124.61 83.2333 124.877 83.4 125.143 83.6C125.443 83.7667 125.71 83.9333 125.943 84.1L126.543 84.65C126.71 84.8167 126.86 85 126.993 85.2C127.16 85.3667 127.31 85.55 127.443 85.75C127.71 86.0833 127.927 86.45 128.093 86.85C128.293 87.25 128.427 87.6667 128.493 88.1C128.56 88.3333 128.593 88.5833 128.593 88.85C128.593 89.0833 128.56 89.3333 128.493 89.6C128.427 89.8667 128.443 90.1167 128.543 90.35C128.577 90.45 128.56 90.6167 128.493 90.85L128.343 91.5C128.277 91.7 128.193 91.8833 128.093 92.05C128.027 92.2167 127.91 92.3833 127.743 92.55L127.143 93.35C126.943 93.5833 126.727 93.8167 126.493 94.05C126.293 94.2833 126.06 94.4833 125.793 94.65L125.343 94.95C125.277 94.95 125.177 94.9833 125.043 95.05C123.577 95.8167 122.06 96.2167 120.493 96.25C120.327 96.25 120.193 96.2667 120.093 96.3C119.793 96.3333 119.477 96.3667 119.143 96.4C118.843 96.4 118.527 96.4 118.193 96.4C117.927 96.4 117.643 96.4333 117.343 96.5C117.077 96.5333 116.81 96.55 116.543 96.55C116.41 96.5833 116.277 96.6167 116.143 96.65C116.01 96.65 115.877 96.65 115.743 96.65C115.577 96.6833 115.393 96.7167 115.193 96.75C115.027 96.7833 114.86 96.8333 114.693 96.9C114.593 96.9333 114.493 96.9667 114.393 97C114.327 97.0333 114.243 97.0833 114.143 97.15C113.81 97.3833 113.427 97.5 112.993 97.5H111.943ZM114.143 80.85C114.277 80.85 114.393 80.8333 114.493 80.8C114.627 80.7667 114.743 80.7333 114.843 80.7C115.277 80.5333 115.693 80.3833 116.093 80.25C116.493 80.0833 116.91 79.9333 117.343 79.8C117.843 79.6333 118.343 79.45 118.843 79.25C119.343 79.0167 119.843 78.8 120.343 78.6C120.743 78.4333 121.127 78.2167 121.493 77.95C121.893 77.6833 122.26 77.4167 122.593 77.15C122.66 77.1167 122.71 77.0833 122.743 77.05C122.777 76.9833 122.81 76.9333 122.843 76.9C122.91 76.8 122.91 76.7 122.843 76.6L122.693 76.35C122.56 76.25 122.443 76.15 122.343 76.05C122.243 75.95 122.11 75.85 121.943 75.75C121.81 75.6833 121.677 75.6 121.543 75.5C121.41 75.4 121.26 75.3167 121.093 75.25L120.643 74.95C120.143 74.75 119.643 74.5833 119.143 74.45C118.643 74.3167 118.127 74.25 117.593 74.25H115.893C115.627 74.25 115.36 74.2667 115.093 74.3C114.827 74.3333 114.56 74.3833 114.293 74.45C114.193 74.45 114.043 74.4833 113.843 74.55C113.643 74.5833 113.543 74.7 113.543 74.9V76.05C113.61 76.3833 113.61 76.7333 113.543 77.1V77.55C113.61 77.75 113.643 77.9667 113.643 78.2C113.643 78.4 113.643 78.6167 113.643 78.85C113.677 79.45 113.777 80.0833 113.943 80.75C113.943 80.8167 114.01 80.85 114.143 80.85ZM114.543 92.4H114.743C114.977 92.3667 115.21 92.35 115.443 92.35C115.677 92.3167 115.91 92.2833 116.143 92.25C116.543 92.1833 116.943 92.1167 117.343 92.05C117.777 91.9833 118.193 91.9333 118.593 91.9C119.36 91.8333 120.11 91.7333 120.843 91.6C121.143 91.5333 121.427 91.4667 121.693 91.4C121.993 91.3333 122.277 91.2667 122.543 91.2C122.71 91.1333 122.86 91.0667 122.993 91C123.16 90.9 123.31 90.8167 123.443 90.75C123.91 90.4167 124.177 89.9167 124.243 89.25C124.277 88.6167 124.043 88.1 123.543 87.7C123.477 87.6333 123.343 87.5333 123.143 87.4C122.61 87.0333 122.043 86.7333 121.443 86.5C120.843 86.2667 120.227 86.0833 119.593 85.95C119.293 85.8833 118.993 85.8333 118.693 85.8C118.427 85.7333 118.143 85.7167 117.843 85.75C117.71 85.75 117.56 85.7667 117.393 85.8C117.26 85.8 117.127 85.8 116.993 85.8C116.86 85.8 116.727 85.8167 116.593 85.85C116.46 85.85 116.31 85.85 116.143 85.85C115.977 85.85 115.793 85.85 115.593 85.85C115.427 85.85 115.26 85.8667 115.093 85.9H114.643C114.477 85.9667 114.393 86.0667 114.393 86.2C114.427 86.4667 114.443 86.75 114.443 87.05C114.443 87.35 114.443 87.6333 114.443 87.9C114.443 87.9667 114.443 88.0333 114.443 88.1C114.477 88.1667 114.493 88.2333 114.493 88.3V89.35C114.46 89.55 114.443 89.75 114.443 89.95C114.443 90.15 114.443 90.3333 114.443 90.5C114.443 90.7333 114.443 90.9667 114.443 91.2C114.477 91.4 114.46 91.6167 114.393 91.85C114.36 91.9167 114.343 92.0333 114.343 92.2C114.343 92.2667 114.41 92.3333 114.543 92.4Z" fill="white"/>
<g filter="url(#filter0_d)">
<path d="M1 11C1 4.92487 5.92487 0 12 0H276C282.075 0 287 4.92487 287 11V27C287 33.0751 282.075 38 276 38H12C5.92488 38 1 33.0751 1 27V11Z" fill="white"/>
</g>
<g clip-path="url(#clip0)">
<path d="M213.132 86.2664L269.944 29.4694L296.516 56.0492L239.703 112.846L213.132 86.2664Z" fill="#FFCE31"/>
<path d="M308.191 21.1937L304.806 17.8094C298.394 11.3969 288.062 11.3969 281.472 17.8094L269.894 29.3875L296.612 56.1063L308.191 44.5281C314.603 38.1156 314.603 27.6062 308.191 21.1937Z" fill="#ED4C5C"/>
<path d="M262.737 36.7085L270.04 29.4018L296.616 55.978L289.313 63.2829L262.737 36.7085Z" fill="#93A2AA"/>
<path d="M265.508 39.4783L272.811 32.1734L293.722 53.0817L286.415 60.3848L265.508 39.4783Z" fill="#C7D3D8"/>
<path d="M213.072 86.2094L201.494 116.491L209.509 124.506L239.791 112.928L213.072 86.2094Z" fill="#FED0AC"/>
<path d="M199.534 121.834C197.931 126.109 200.069 128.069 204.344 126.466L218.95 120.944L205.234 107.228L199.534 121.834Z" fill="#333333"/>
<path d="M213.054 86.343L262.68 36.7173L271.497 45.5345L221.871 95.1602L213.054 86.343Z" fill="#FFDF85"/>
<path d="M230.891 104.097L280.517 54.4711L289.334 63.2883L239.709 112.914L230.891 104.097Z" fill="#FF8736"/>
</g>
<path d="M86.18 179.59C85.9467 179.683 85.76 179.66 85.62 179.52C85.1067 179.287 84.78 178.89 84.64 178.33V178.19C84.5933 177.77 84.5467 177.35 84.5 176.93C84.4533 176.51 84.4067 176.113 84.36 175.74C84.36 175.647 84.3367 175.53 84.29 175.39C84.29 175.297 84.29 175.203 84.29 175.11C84.2433 174.97 84.22 174.83 84.22 174.69C84.22 174.55 84.22 174.41 84.22 174.27C84.22 173.897 84.1733 173.57 84.08 173.29C83.9867 173.01 83.8933 172.73 83.8 172.45C83.7067 172.263 83.6133 172.147 83.52 172.1C83.3333 171.867 83.1933 171.61 83.1 171.33C83.0067 171.097 82.89 170.84 82.75 170.56V170.49C82.5167 169.837 82.3767 169.417 82.33 169.23C82.2833 168.997 82.26 168.553 82.26 167.9V166.99C82.26 166.523 82.4 166.15 82.68 165.87C82.7267 165.777 82.7733 165.683 82.82 165.59C82.9133 165.497 82.9833 165.403 83.03 165.31C83.1233 165.03 83.1233 164.82 83.03 164.68C82.8433 164.307 82.7033 163.933 82.61 163.56C82.5167 163.14 82.4233 162.72 82.33 162.3V161.53C82.3767 161.25 82.4 160.993 82.4 160.76C82.4467 160.48 82.4933 160.2 82.54 159.92C82.6333 159.5 82.6333 159.033 82.54 158.52C82.4467 158.24 82.4 158.03 82.4 157.89C82.3533 157.75 82.3067 157.61 82.26 157.47C82.26 157.33 82.26 157.19 82.26 157.05C82.26 156.49 82.19 155.977 82.05 155.51C81.9567 155.23 81.91 154.997 81.91 154.81C81.91 154.063 81.8633 153.34 81.77 152.64C81.6767 151.893 81.5833 151.147 81.49 150.4C81.49 150.307 81.4667 150.26 81.42 150.26C81.42 150.213 81.42 150.167 81.42 150.12C81.42 149.747 81.3733 149.373 81.28 149C81.1867 148.58 81.0933 148.207 81 147.88C80.9533 147.787 80.93 147.67 80.93 147.53C80.93 147.39 80.9067 147.273 80.86 147.18C80.8133 146.853 80.7667 146.55 80.72 146.27C80.72 145.99 80.6733 145.687 80.58 145.36V145.08C80.5333 144.567 80.44 144.077 80.3 143.61C80.2067 143.143 80.1133 142.677 80.02 142.21C80.02 142.023 79.9967 141.837 79.95 141.65C79.95 141.463 79.9267 141.277 79.88 141.09L79.67 140.32C79.6233 140.133 79.5767 139.947 79.53 139.76C79.53 139.527 79.5067 139.317 79.46 139.13C79.4133 138.803 79.39 138.5 79.39 138.22C79.39 137.893 79.3667 137.567 79.32 137.24C79.2733 136.913 79.2267 136.61 79.18 136.33C79.18 136.05 79.1333 135.77 79.04 135.49C78.9933 135.117 78.9467 134.743 78.9 134.37C78.9 133.95 78.8533 133.553 78.76 133.18C78.62 132.433 78.34 131.757 77.92 131.15C77.0333 129.843 76.66 128.373 76.8 126.74C76.8933 126.227 77.1033 125.76 77.43 125.34C77.4767 125.247 77.5933 125.107 77.78 124.92C78.1067 124.5 78.48 124.197 78.9 124.01C79.3667 123.777 79.8567 123.637 80.37 123.59C81.1633 123.45 81.8867 123.24 82.54 122.96C83.8 122.587 85.06 122.307 86.32 122.12C87.16 121.98 88 121.91 88.84 121.91H89.54C89.9133 121.817 90.2867 121.77 90.66 121.77C91.08 121.77 91.4767 121.77 91.85 121.77H92.48C92.76 121.77 92.9933 121.677 93.18 121.49L94.02 121C94.16 120.907 94.3 120.907 94.44 121C94.58 121.093 94.72 121.163 94.86 121.21C95.0467 121.257 95.21 121.327 95.35 121.42C95.5833 121.513 95.7933 121.607 95.98 121.7C96.1667 121.793 96.3533 121.887 96.54 121.98C96.6333 122.073 96.75 122.143 96.89 122.19C97.03 122.237 97.17 122.283 97.31 122.33L98.64 122.61C99.0133 122.657 99.34 122.75 99.62 122.89C99.9467 122.983 100.273 123.1 100.6 123.24C100.973 123.38 101.3 123.59 101.58 123.87C101.86 124.103 102.14 124.383 102.42 124.71C103.073 125.317 103.493 126.087 103.68 127.02C103.727 127.393 103.843 127.837 104.03 128.35C104.123 128.677 104.17 129.003 104.17 129.33C104.17 129.657 104.193 130.007 104.24 130.38C104.24 130.38 104.24 130.497 104.24 130.73C104.193 131.243 104.123 131.78 104.03 132.34C103.937 132.853 103.82 133.367 103.68 133.88C103.54 134.347 103.377 134.837 103.19 135.35C103.05 135.863 102.863 136.353 102.63 136.82C102.35 137.52 101.953 138.197 101.44 138.85C101.113 139.27 100.787 139.713 100.46 140.18C100.18 140.6 99.8533 141.02 99.48 141.44C99.2933 141.627 99.1067 141.837 98.92 142.07C98.7333 142.257 98.5467 142.443 98.36 142.63L97.52 143.47V143.61C97.52 143.703 97.5667 143.75 97.66 143.75H98.71C99.3633 143.797 100.017 143.89 100.67 144.03C101.323 144.123 101.953 144.263 102.56 144.45C102.7 144.497 102.817 144.543 102.91 144.59C103.05 144.637 103.19 144.707 103.33 144.8L104.17 145.29C104.45 145.477 104.707 145.663 104.94 145.85C105.173 146.037 105.337 146.317 105.43 146.69C105.523 146.923 105.64 147.157 105.78 147.39C106.013 147.81 106.223 148.253 106.41 148.72C106.597 149.14 106.783 149.583 106.97 150.05C107.063 150.237 107.133 150.423 107.18 150.61C107.273 150.75 107.343 150.913 107.39 151.1C107.623 151.753 107.857 152.407 108.09 153.06C108.323 153.713 108.51 154.39 108.65 155.09L108.86 156.84C108.953 157.12 108.953 157.423 108.86 157.75C108.813 158.03 108.767 158.31 108.72 158.59C108.673 158.823 108.627 159.08 108.58 159.36C108.44 159.967 108.23 160.55 107.95 161.11C107.81 161.39 107.623 161.647 107.39 161.88C106.783 162.627 106.153 163.21 105.5 163.63C105.173 163.817 104.847 164.027 104.52 164.26C104.24 164.493 103.913 164.727 103.54 164.96C102.84 165.38 102.047 165.823 101.16 166.29C100.927 166.383 100.67 166.5 100.39 166.64C100.157 166.78 99.9233 166.897 99.69 166.99C98.9433 167.317 98.22 167.643 97.52 167.97C96.82 168.297 96.12 168.6 95.42 168.88C94.6733 169.16 93.95 169.44 93.25 169.72C92.55 170 91.8033 170.257 91.01 170.49C90.8233 170.537 90.6367 170.583 90.45 170.63C90.31 170.677 90.1467 170.723 89.96 170.77C89.12 170.91 88.4433 171.353 87.93 172.1C87.7433 172.287 87.65 172.52 87.65 172.8C87.6033 172.987 87.5567 173.15 87.51 173.29C87.51 173.477 87.51 173.663 87.51 173.85C87.4633 173.99 87.44 174.177 87.44 174.41V176.86C87.44 177.093 87.44 177.327 87.44 177.56C87.44 177.84 87.3933 178.097 87.3 178.33C87.2067 178.843 86.8333 179.263 86.18 179.59ZM87.79 142.84C87.8367 142.887 87.86 142.91 87.86 142.91C87.86 142.863 87.8833 142.84 87.93 142.84C87.9767 142.793 88 142.77 88 142.77C88.0467 142.77 88.07 142.77 88.07 142.77C88.3033 142.817 88.5367 142.77 88.77 142.63C89.0033 142.443 89.2367 142.28 89.47 142.14C89.75 141.953 90.03 141.767 90.31 141.58C90.73 141.3 91.1267 140.997 91.5 140.67C91.92 140.297 92.3167 139.923 92.69 139.55C93.25 138.943 93.7867 138.337 94.3 137.73C94.8133 137.077 95.28 136.4 95.7 135.7C95.9333 135.28 96.1667 134.883 96.4 134.51C96.6333 134.09 96.8433 133.647 97.03 133.18C97.2633 132.573 97.4267 131.873 97.52 131.08C97.6133 130.613 97.59 130.193 97.45 129.82C97.31 129.447 97.1 129.19 96.82 129.05C95.98 128.677 95.1867 128.49 94.44 128.49C93.9733 128.49 93.53 128.49 93.11 128.49C92.69 128.49 92.27 128.513 91.85 128.56C91.4767 128.607 91.1033 128.653 90.73 128.7C90.3567 128.747 89.9833 128.817 89.61 128.91C89.2833 129.003 88.9333 129.12 88.56 129.26C88.2333 129.353 87.8833 129.447 87.51 129.54C86.9967 129.68 86.67 129.983 86.53 130.45C86.4367 130.59 86.39 130.8 86.39 131.08V132.2C86.3433 132.667 86.3433 133.133 86.39 133.6C86.4367 134.067 86.4833 134.533 86.53 135L86.6 135.07C86.5533 135.397 86.5533 135.723 86.6 136.05C86.6933 136.377 86.7633 136.727 86.81 137.1C86.81 137.24 86.88 137.357 87.02 137.45C87.2067 137.543 87.23 137.73 87.09 138.01C87.09 138.01 87.0667 138.033 87.02 138.08C87.02 138.08 87.0433 138.103 87.09 138.15C87.1833 138.197 87.2067 138.29 87.16 138.43C87.1133 138.523 87.09 138.617 87.09 138.71C87.09 139.083 87.1133 139.34 87.16 139.48C87.2067 139.573 87.23 139.69 87.23 139.83C87.23 140.017 87.2533 140.227 87.3 140.46C87.3467 140.647 87.3933 140.833 87.44 141.02C87.44 141.113 87.4867 141.137 87.58 141.09C87.6267 141.043 87.6967 141.02 87.79 141.02C87.8367 141.02 87.86 141.09 87.86 141.23V141.44C87.6267 141.767 87.58 142.117 87.72 142.49V142.77C87.7667 142.77 87.79 142.793 87.79 142.84ZM89.05 164.19C89.19 164.19 89.33 164.19 89.47 164.19C89.61 164.19 89.7733 164.167 89.96 164.12C90.8 163.98 91.6867 163.723 92.62 163.35L95.35 162.09C96.0967 161.717 96.82 161.367 97.52 161.04C98.22 160.667 98.9433 160.317 99.69 159.99C100.483 159.57 101.207 159.01 101.86 158.31C102.28 157.89 102.49 157.377 102.49 156.77V156.42C102.443 156.327 102.42 156.257 102.42 156.21C102.42 156.117 102.397 156.023 102.35 155.93C102.21 155.183 102 154.483 101.72 153.83C101.487 153.13 101.23 152.43 100.95 151.73C100.903 151.543 100.833 151.38 100.74 151.24C100.647 151.053 100.553 150.867 100.46 150.68C100.32 150.4 100.133 150.237 99.9 150.19C99.48 150.05 99.0833 149.98 98.71 149.98H97.59C96.33 149.933 95.0467 150.003 93.74 150.19C92.4333 150.377 91.1033 150.657 89.75 151.03L89.26 151.24C89.2133 151.287 89.1667 151.31 89.12 151.31C89.12 151.31 89.0967 151.333 89.05 151.38C88.91 151.52 88.8867 151.66 88.98 151.8L89.12 151.94C89.26 152.08 89.2833 152.22 89.19 152.36C89.0967 152.5 89.05 152.687 89.05 152.92C89.05 153.107 89.05 153.293 89.05 153.48C89.05 153.62 89.0733 153.783 89.12 153.97C89.1667 154.157 89.19 154.343 89.19 154.53C89.19 154.717 89.19 154.903 89.19 155.09V155.93C89.19 156.397 89.2833 156.747 89.47 156.98C89.5633 157.167 89.61 157.353 89.61 157.54C89.6567 157.727 89.68 157.913 89.68 158.1C89.68 158.333 89.61 158.59 89.47 158.87C89.33 159.103 89.3067 159.383 89.4 159.71C89.4467 159.803 89.5167 159.897 89.61 159.99C89.7033 160.317 89.6567 160.573 89.47 160.76C89.33 160.993 89.2833 161.203 89.33 161.39C89.33 161.67 89.3067 161.88 89.26 162.02C89.2133 162.113 89.1433 162.23 89.05 162.37C89.0033 162.51 88.91 162.627 88.77 162.72C88.5367 162.907 88.3733 163.187 88.28 163.56C88.1867 163.747 88.14 163.91 88.14 164.05C88.14 164.143 88.3033 164.167 88.63 164.12C88.7233 164.12 88.7933 164.143 88.84 164.19C88.9333 164.19 89.0033 164.19 89.05 164.19ZM130.606 171.4C130.14 171.353 129.673 171.283 129.206 171.19C128.786 171.143 128.366 171.027 127.946 170.84L126.196 170.21C125.59 169.977 125.03 169.72 124.516 169.44C124.003 169.113 123.49 168.787 122.976 168.46C122.743 168.227 122.51 168.017 122.276 167.83C122.043 167.597 121.81 167.387 121.576 167.2C121.203 166.827 120.83 166.453 120.456 166.08C120.083 165.66 119.733 165.217 119.406 164.75L117.726 162.16C117.306 161.507 116.933 160.83 116.606 160.13C116.28 159.383 116 158.637 115.766 157.89C115.253 156.49 114.996 155.113 114.996 153.76V152.64C114.996 151.473 115.066 150.33 115.206 149.21C115.3 148.277 115.51 147.437 115.836 146.69C116.023 146.223 116.186 145.757 116.326 145.29C116.466 144.823 116.63 144.38 116.816 143.96L117.026 143.47C117.12 142.863 117.33 142.327 117.656 141.86C117.983 141.347 118.263 140.857 118.496 140.39C118.683 140.017 118.893 139.69 119.126 139.41C119.36 139.083 119.57 138.757 119.756 138.43C119.85 138.29 119.966 138.173 120.106 138.08C120.246 137.94 120.363 137.8 120.456 137.66C120.55 137.567 120.62 137.45 120.666 137.31C120.76 137.123 120.83 136.96 120.876 136.82C120.97 136.68 121.133 136.493 121.366 136.26C121.646 136.12 121.903 135.793 122.136 135.28C122.23 135.093 122.323 134.953 122.416 134.86C122.696 134.627 122.93 134.347 123.116 134.02C123.35 133.693 123.606 133.39 123.886 133.11C124.073 132.923 124.166 132.667 124.166 132.34C124.166 132.107 124.166 131.897 124.166 131.71C124.213 131.477 124.213 131.267 124.166 131.08C124.12 130.847 124.19 130.637 124.376 130.45C124.47 130.357 124.54 130.24 124.586 130.1C124.633 129.96 124.68 129.82 124.726 129.68C124.866 129.213 125.24 128.817 125.846 128.49C125.94 128.397 126.056 128.35 126.196 128.35C126.383 128.303 126.546 128.257 126.686 128.21C127.013 128.07 127.386 128.047 127.806 128.14C127.993 128.187 128.156 128.21 128.296 128.21C128.436 128.163 128.576 128.117 128.716 128.07C128.903 127.977 129.066 127.907 129.206 127.86C129.393 127.813 129.556 127.767 129.696 127.72C130.35 127.487 131.026 127.51 131.726 127.79C132.473 128.07 133.01 128.56 133.336 129.26C133.43 129.493 133.523 129.727 133.616 129.96C133.71 130.193 133.78 130.427 133.826 130.66C133.92 131.173 133.896 131.617 133.756 131.99C133.663 132.177 133.616 132.293 133.616 132.34C133.57 132.527 133.616 132.69 133.756 132.83C133.85 132.97 133.966 133.087 134.106 133.18C134.62 133.647 135.11 134.113 135.576 134.58C136.043 135 136.486 135.467 136.906 135.98C137.28 136.353 137.583 136.75 137.816 137.17C138.096 137.543 138.353 137.963 138.586 138.43C138.68 138.663 138.796 138.92 138.936 139.2C139.076 139.433 139.216 139.667 139.356 139.9C139.59 140.32 139.776 140.763 139.916 141.23C140.103 141.697 140.29 142.163 140.476 142.63V142.7C140.57 143.027 140.64 143.377 140.686 143.75C140.78 144.077 140.92 144.427 141.106 144.8C141.246 145.127 141.363 145.477 141.456 145.85C141.55 146.177 141.643 146.527 141.736 146.9C141.83 147.32 141.923 147.74 142.016 148.16C142.156 148.58 142.25 149 142.296 149.42C142.343 149.607 142.39 149.793 142.436 149.98C142.483 150.12 142.53 150.283 142.576 150.47C142.67 150.89 142.763 151.31 142.856 151.73C142.95 152.15 143.02 152.57 143.066 152.99L143.276 153.48C143.37 153.76 143.463 154.133 143.556 154.6C143.696 155.207 143.766 155.813 143.766 156.42C143.813 157.027 143.813 157.657 143.766 158.31C143.766 158.637 143.743 158.893 143.696 159.08C143.416 160.06 143.066 161.063 142.646 162.09C142.46 162.417 142.273 162.743 142.086 163.07C141.9 163.35 141.713 163.653 141.526 163.98L140.896 164.96C140.663 165.38 140.406 165.753 140.126 166.08C139.66 166.827 139.1 167.48 138.446 168.04C137.793 168.6 137.093 169.137 136.346 169.65C134.713 170.91 132.8 171.493 130.606 171.4ZM130.326 164.47C131.306 164.47 132.146 164.19 132.846 163.63C133.08 163.397 133.313 163.187 133.546 163C133.826 162.767 134.06 162.533 134.246 162.3C135.133 161.32 135.833 160.293 136.346 159.22L136.556 158.52C136.65 157.68 136.65 156.84 136.556 156L136.136 153.69C135.996 153.083 135.88 152.5 135.786 151.94C135.693 151.333 135.553 150.75 135.366 150.19C135.226 149.863 135.18 149.607 135.226 149.42C135.273 149.187 135.273 148.953 135.226 148.72C135.18 148.487 135.11 148.253 135.016 148.02C134.876 147.413 134.713 146.807 134.526 146.2C134.34 145.593 134.153 144.987 133.966 144.38C133.92 144.24 133.873 144.1 133.826 143.96C133.78 143.82 133.733 143.68 133.686 143.54C133.36 142.887 133.01 142.257 132.636 141.65C132.263 141.043 131.843 140.483 131.376 139.97C131.143 139.69 130.886 139.433 130.606 139.2C130.326 138.92 130.046 138.663 129.766 138.43C129.72 138.337 129.65 138.29 129.556 138.29C129.51 138.243 129.44 138.197 129.346 138.15C129.206 137.963 129.02 137.987 128.786 138.22C128.553 138.453 128.296 138.71 128.016 138.99C127.783 139.27 127.55 139.55 127.316 139.83C127.083 140.157 126.826 140.483 126.546 140.81C126.313 141.137 126.08 141.463 125.846 141.79C125.52 142.21 125.216 142.63 124.936 143.05C124.656 143.47 124.376 143.89 124.096 144.31C123.116 145.897 122.346 147.647 121.786 149.56C121.693 149.84 121.646 150.05 121.646 150.19C121.6 150.517 121.553 150.843 121.506 151.17C121.506 151.497 121.506 151.847 121.506 152.22V152.78C121.553 152.92 121.576 153.06 121.576 153.2C121.576 153.34 121.6 153.48 121.646 153.62C121.646 154.18 121.786 154.787 122.066 155.44C122.44 156.373 122.86 157.283 123.326 158.17C123.793 159.057 124.33 159.897 124.936 160.69C125.076 160.877 125.216 161.063 125.356 161.25C125.543 161.437 125.706 161.623 125.846 161.81C126.266 162.277 126.71 162.697 127.176 163.07C127.69 163.443 128.203 163.77 128.716 164.05C129.276 164.33 129.813 164.47 130.326 164.47ZM177.818 175.11C177.398 175.11 177.024 174.947 176.698 174.62C176.604 174.48 176.511 174.34 176.418 174.2C176.324 174.06 176.231 173.92 176.138 173.78C175.718 172.8 175.508 171.773 175.508 170.7L175.298 169.02C175.158 168.367 175.041 167.713 174.948 167.06C174.854 166.407 174.691 165.777 174.458 165.17L174.038 163.98C174.038 163.887 174.014 163.793 173.968 163.7C173.968 163.607 173.944 163.513 173.898 163.42L172.848 159.71C172.801 159.617 172.754 159.5 172.708 159.36C172.708 159.22 172.661 159.103 172.568 159.01C172.428 158.73 172.311 158.45 172.218 158.17C172.171 157.843 172.101 157.517 172.008 157.19C171.961 156.957 171.914 156.747 171.868 156.56C171.821 156.327 171.751 156.093 171.658 155.86C171.564 155.58 171.471 155.417 171.378 155.37C171.284 155.277 171.074 155.277 170.748 155.37C170.514 155.417 170.258 155.463 169.978 155.51C169.744 155.51 169.511 155.557 169.278 155.65C169.091 155.697 168.858 155.743 168.578 155.79C168.344 155.79 168.111 155.813 167.878 155.86L166.898 156.07C166.664 156.117 166.408 156.187 166.128 156.28C165.894 156.327 165.661 156.35 165.428 156.35L164.168 156.56C163.794 156.653 163.398 156.747 162.978 156.84C162.558 156.933 162.161 157.027 161.788 157.12C160.668 157.4 159.548 157.61 158.428 157.75C158.054 157.843 157.844 158.007 157.798 158.24C157.751 158.24 157.728 158.263 157.728 158.31C157.448 159.057 157.121 159.803 156.748 160.55C156.421 161.25 156.071 161.973 155.698 162.72C155.604 162.907 155.511 163.093 155.418 163.28C155.371 163.42 155.301 163.583 155.208 163.77C155.161 163.863 155.114 163.98 155.068 164.12C155.021 164.213 154.974 164.307 154.928 164.4C154.648 164.727 154.508 165.123 154.508 165.59C154.461 165.87 154.368 166.15 154.228 166.43C154.088 166.663 153.948 166.897 153.808 167.13C153.761 167.27 153.668 167.34 153.528 167.34C153.341 167.387 153.154 167.457 152.968 167.55C152.781 167.643 152.571 167.737 152.338 167.83C152.198 167.877 152.058 167.877 151.918 167.83C151.824 167.783 151.708 167.737 151.568 167.69C151.474 167.597 151.381 167.55 151.288 167.55C150.774 167.503 150.401 167.2 150.168 166.64C149.794 165.893 149.538 165.147 149.398 164.4C149.351 164.213 149.351 164.05 149.398 163.91C149.491 163.77 149.561 163.63 149.608 163.49C149.888 163.303 150.051 163.093 150.098 162.86V162.79C150.098 162.183 150.214 161.623 150.448 161.11C150.728 160.55 150.961 160.013 151.148 159.5C151.241 159.22 151.358 158.94 151.498 158.66C151.638 158.38 151.778 158.1 151.918 157.82C152.104 157.493 152.244 157.19 152.338 156.91C152.478 156.583 152.594 156.257 152.688 155.93C152.828 155.557 152.828 155.207 152.688 154.88C152.594 154.6 152.548 154.343 152.548 154.11C152.548 153.83 152.571 153.55 152.618 153.27C152.618 152.757 152.804 152.313 153.178 151.94C153.364 151.707 153.551 151.52 153.738 151.38C153.971 151.193 154.181 151.007 154.368 150.82C154.788 150.4 155.114 149.84 155.348 149.14C155.534 148.533 155.674 147.927 155.768 147.32C155.908 146.667 156.048 146.037 156.188 145.43C156.281 144.823 156.374 144.24 156.468 143.68C156.608 143.073 156.748 142.49 156.888 141.93C156.934 141.697 156.981 141.487 157.028 141.3C157.121 141.067 157.191 140.857 157.238 140.67C157.378 140.297 157.518 139.947 157.658 139.62C157.798 139.247 157.891 138.873 157.938 138.5C158.031 138.313 158.031 138.15 157.938 138.01C157.891 137.777 157.891 137.567 157.938 137.38C158.031 137.193 158.101 137.007 158.148 136.82C158.288 136.493 158.381 136.167 158.428 135.84C158.521 135.513 158.638 135.187 158.778 134.86C159.011 134.253 159.198 133.763 159.338 133.39C159.524 132.97 159.688 132.503 159.828 131.99C159.921 131.71 160.014 131.453 160.108 131.22C160.248 130.94 160.341 130.66 160.388 130.38C160.528 129.96 160.644 129.54 160.738 129.12C160.831 128.653 160.878 128.21 160.878 127.79C160.971 127.417 161.064 127.16 161.158 127.02C161.391 126.553 161.671 126.157 161.998 125.83C162.371 125.503 162.721 125.177 163.048 124.85C163.281 124.71 163.514 124.617 163.748 124.57C163.981 124.477 164.214 124.5 164.448 124.64C164.634 124.733 164.751 124.78 164.798 124.78C165.218 124.733 165.568 124.827 165.848 125.06C166.128 125.293 166.361 125.573 166.548 125.9C166.641 125.993 166.711 126.11 166.758 126.25C166.804 126.39 166.851 126.507 166.898 126.6C167.131 126.973 167.248 127.347 167.248 127.72C167.248 127.907 167.271 128.117 167.318 128.35C167.364 128.537 167.411 128.747 167.458 128.98C167.598 129.26 167.808 129.4 168.088 129.4C168.134 129.353 168.181 129.353 168.228 129.4C168.274 129.447 168.298 129.493 168.298 129.54C168.531 129.82 168.601 130.123 168.508 130.45C168.414 130.823 168.391 131.197 168.438 131.57C168.531 131.897 168.624 132.247 168.718 132.62C168.904 133.087 169.091 133.553 169.278 134.02C169.464 134.487 169.651 134.953 169.838 135.42C170.071 135.933 170.304 136.447 170.538 136.96C170.771 137.473 170.981 137.987 171.168 138.5C171.401 139.153 171.634 139.807 171.868 140.46C172.148 141.113 172.451 141.767 172.778 142.42L172.988 143.19C173.034 143.377 173.081 143.563 173.128 143.75C173.221 143.937 173.291 144.123 173.338 144.31C173.431 144.45 173.501 144.59 173.548 144.73C173.641 144.87 173.734 144.987 173.828 145.08C174.061 145.407 174.201 145.757 174.248 146.13C174.388 146.597 174.598 147.017 174.878 147.39C174.971 147.53 175.111 147.6 175.298 147.6C175.998 147.507 176.698 147.437 177.398 147.39C178.098 147.297 178.798 147.157 179.498 146.97C180.011 146.83 180.501 146.76 180.968 146.76C181.854 146.76 182.671 147.063 183.418 147.67C184.304 148.37 184.771 149.257 184.818 150.33C184.818 150.563 184.841 150.75 184.888 150.89C184.888 151.217 184.794 151.473 184.608 151.66C184.561 151.8 184.468 151.94 184.328 152.08C184.234 152.22 184.141 152.36 184.048 152.5C183.954 152.687 183.861 152.827 183.768 152.92L183.348 153.27C183.301 153.363 183.231 153.48 183.138 153.62C183.044 153.713 182.928 153.783 182.788 153.83C182.601 153.877 182.414 153.947 182.228 154.04C182.041 154.087 181.831 154.11 181.598 154.11C180.758 154.203 180.011 154.18 179.358 154.04H178.238C178.144 154.04 178.004 154.087 177.818 154.18C177.631 154.273 177.538 154.39 177.538 154.53V154.81C177.678 155.23 177.771 155.673 177.818 156.14C177.911 156.56 178.051 156.957 178.238 157.33C178.238 157.517 178.284 157.703 178.378 157.89C178.611 158.31 178.798 158.753 178.938 159.22C179.078 159.64 179.194 160.083 179.288 160.55C179.288 160.643 179.334 160.83 179.428 161.11C179.568 161.437 179.684 161.787 179.778 162.16C179.871 162.487 179.941 162.837 179.988 163.21C179.988 163.49 180.058 163.747 180.198 163.98C180.384 164.4 180.524 164.82 180.618 165.24C180.711 165.66 180.781 166.103 180.828 166.57C180.874 166.617 180.898 166.71 180.898 166.85C180.898 166.943 180.921 167.037 180.968 167.13C181.201 167.643 181.364 168.203 181.458 168.81C181.551 169.37 181.668 169.93 181.808 170.49C181.901 170.77 181.948 171.05 181.948 171.33C181.994 171.657 182.018 171.983 182.018 172.31C182.018 172.543 181.948 172.8 181.808 173.08C181.668 173.22 181.598 173.29 181.598 173.29C181.318 173.337 181.154 173.5 181.108 173.78L180.898 174.2C180.804 174.387 180.664 174.503 180.478 174.55C180.291 174.55 180.128 174.62 179.988 174.76C179.801 174.947 179.544 175.04 179.218 175.04C179.031 175.04 178.798 175.04 178.518 175.04C178.284 175.04 178.051 175.063 177.818 175.11ZM160.948 149.7C161.228 149.653 161.508 149.607 161.788 149.56C162.114 149.513 162.464 149.467 162.838 149.42C163.071 149.373 163.374 149.327 163.748 149.28C164.121 149.233 164.471 149.187 164.798 149.14C165.124 149.047 165.451 149 165.778 149C166.104 148.953 166.431 148.907 166.758 148.86C167.038 148.767 167.318 148.72 167.598 148.72C167.878 148.673 168.158 148.627 168.438 148.58C168.858 148.487 169.021 148.253 168.928 147.88C168.881 147.507 168.788 147.133 168.648 146.76C168.554 146.34 168.344 145.99 168.018 145.71C167.924 145.617 167.878 145.477 167.878 145.29V145.08C167.784 144.707 167.668 144.357 167.528 144.03C167.434 143.657 167.318 143.307 167.178 142.98C167.084 142.607 166.968 142.28 166.828 142C166.734 141.673 166.618 141.347 166.478 141.02L165.638 138.5C165.498 138.173 165.358 137.847 165.218 137.52C165.124 137.193 165.031 136.867 164.938 136.54L164.728 136.26H164.518L164.378 136.47C164.144 137.17 163.864 137.87 163.538 138.57C163.258 139.27 163.001 140.017 162.768 140.81C162.768 140.903 162.744 141.02 162.698 141.16C162.651 141.3 162.604 141.44 162.558 141.58C162.371 142.047 162.184 142.56 161.998 143.12C161.858 143.68 161.741 144.24 161.648 144.8C161.601 145.127 161.554 145.453 161.508 145.78C161.461 146.06 161.391 146.363 161.298 146.69L160.668 149.42C160.621 149.467 160.644 149.537 160.738 149.63C160.831 149.677 160.901 149.7 160.948 149.7ZM196.565 171.4C195.678 171.493 194.955 171.213 194.395 170.56C194.115 170.28 193.858 169.977 193.625 169.65C193.392 169.323 193.205 168.973 193.065 168.6C192.832 167.947 192.622 167.293 192.435 166.64C192.248 165.94 192.085 165.263 191.945 164.61C191.805 164.097 191.735 163.607 191.735 163.14C191.688 162.627 191.618 162.137 191.525 161.67C191.478 161.157 191.455 160.643 191.455 160.13C191.455 159.85 191.455 159.57 191.455 159.29C191.455 158.963 191.432 158.66 191.385 158.38C191.338 158.193 191.315 158.03 191.315 157.89C191.315 157.75 191.315 157.587 191.315 157.4C191.315 156.747 191.315 156.093 191.315 155.44C191.315 154.74 191.292 154.063 191.245 153.41C191.245 153.037 191.222 152.71 191.175 152.43C191.128 152.103 191.035 151.777 190.895 151.45C190.708 150.937 190.685 150.377 190.825 149.77C190.825 149.63 190.848 149.537 190.895 149.49C190.988 149.163 191.035 148.837 191.035 148.51C191.082 148.183 191.082 147.857 191.035 147.53C190.988 147.297 190.965 147.063 190.965 146.83C190.965 146.597 190.965 146.387 190.965 146.2C190.918 145.687 190.895 145.173 190.895 144.66C190.942 144.1 190.988 143.563 191.035 143.05C191.082 142.91 191.105 142.77 191.105 142.63C191.105 142.49 191.105 142.35 191.105 142.21C191.058 141.697 191.058 141.207 191.105 140.74C191.198 140.273 191.268 139.807 191.315 139.34C191.408 138.78 191.502 138.243 191.595 137.73C191.688 137.17 191.805 136.61 191.945 136.05C192.038 135.817 192.085 135.56 192.085 135.28C192.085 135 192.085 134.72 192.085 134.44C192.085 134.207 192.062 133.973 192.015 133.74C192.015 133.507 192.015 133.297 192.015 133.11C192.015 132.97 192.015 132.83 192.015 132.69C192.015 132.55 192.038 132.41 192.085 132.27C192.132 132.13 192.155 131.99 192.155 131.85C192.155 131.71 192.178 131.617 192.225 131.57C192.365 131.383 192.482 131.22 192.575 131.08C192.668 130.893 192.808 130.73 192.995 130.59C193.228 130.45 193.438 130.31 193.625 130.17C193.858 130.03 194.068 129.913 194.255 129.82C194.488 129.727 194.675 129.61 194.815 129.47C195.002 129.237 195.188 129.027 195.375 128.84C195.608 128.607 195.795 128.35 195.935 128.07C196.168 127.837 196.402 127.58 196.635 127.3C196.915 126.973 197.218 126.717 197.545 126.53C197.638 126.483 197.778 126.367 197.965 126.18C198.525 125.667 199.178 125.34 199.925 125.2C200.065 125.153 200.182 125.13 200.275 125.13C200.415 125.083 200.555 125.06 200.695 125.06L201.185 124.85C201.558 124.71 201.885 124.78 202.165 125.06C202.258 125.2 202.375 125.34 202.515 125.48C202.702 125.573 202.865 125.667 203.005 125.76C203.378 126.087 203.728 126.437 204.055 126.81C204.428 127.183 204.755 127.603 205.035 128.07C205.502 128.817 205.898 129.563 206.225 130.31C206.598 131.057 206.948 131.827 207.275 132.62L208.535 135.63C208.582 135.91 208.698 136.167 208.885 136.4C209.258 137.1 209.538 137.823 209.725 138.57C209.912 139.27 210.098 139.993 210.285 140.74C210.332 140.833 210.355 140.927 210.355 141.02C210.402 141.113 210.425 141.207 210.425 141.3C210.518 141.673 210.588 142.07 210.635 142.49C210.728 142.863 210.752 143.237 210.705 143.61C210.752 144.03 210.728 144.45 210.635 144.87C210.588 145.243 210.518 145.617 210.425 145.99C210.285 146.457 210.122 146.9 209.935 147.32C209.748 147.693 209.538 148.09 209.305 148.51C209.212 148.79 209.048 149.047 208.815 149.28C208.582 149.513 208.348 149.723 208.115 149.91C207.742 150.097 207.368 150.377 206.995 150.75C206.902 150.843 206.785 150.913 206.645 150.96C206.552 151.007 206.458 151.077 206.365 151.17C206.038 151.31 205.688 151.473 205.315 151.66C204.942 151.8 204.568 151.94 204.195 152.08C204.148 152.08 204.125 152.127 204.125 152.22C204.125 152.267 204.148 152.313 204.195 152.36L206.085 153.69C206.318 153.83 206.528 153.97 206.715 154.11C206.902 154.203 207.088 154.32 207.275 154.46L207.695 154.67C208.255 154.997 208.815 155.347 209.375 155.72C209.935 156.093 210.472 156.467 210.985 156.84C211.965 157.447 212.945 158.077 213.925 158.73C214.905 159.337 215.838 160.013 216.725 160.76C217.518 161.367 218.218 162.067 218.825 162.86C218.965 163 219.105 163.163 219.245 163.35C219.385 163.49 219.548 163.607 219.735 163.7L219.945 163.91C220.692 164.563 221.112 165.45 221.205 166.57C221.205 166.71 221.182 166.85 221.135 166.99C221.135 167.13 221.135 167.27 221.135 167.41C221.135 167.69 221.042 167.923 220.855 168.11C220.668 168.203 220.575 168.32 220.575 168.46C220.435 168.787 220.225 169.02 219.945 169.16C219.712 169.253 219.478 169.393 219.245 169.58C219.152 169.627 218.988 169.65 218.755 169.65C218.475 169.603 218.172 169.557 217.845 169.51C217.565 169.463 217.285 169.44 217.005 169.44C216.632 169.44 216.235 169.277 215.815 168.95C215.535 168.717 215.278 168.507 215.045 168.32C214.812 168.087 214.578 167.807 214.345 167.48C213.738 166.64 212.945 165.87 211.965 165.17C211.498 164.797 211.055 164.447 210.635 164.12C210.215 163.793 209.748 163.49 209.235 163.21C208.908 163.023 208.582 162.837 208.255 162.65C207.975 162.417 207.648 162.207 207.275 162.02C206.108 161.227 204.918 160.457 203.705 159.71C202.492 158.917 201.278 158.123 200.065 157.33C199.878 157.19 199.668 157.05 199.435 156.91C199.202 156.77 198.968 156.63 198.735 156.49C198.642 156.397 198.502 156.303 198.315 156.21C198.128 156.21 198.035 156.28 198.035 156.42C198.035 156.467 198.012 156.513 197.965 156.56C197.965 156.56 197.965 156.583 197.965 156.63C197.965 156.77 197.965 156.91 197.965 157.05C197.965 157.19 197.988 157.33 198.035 157.47C198.082 157.843 198.105 158.217 198.105 158.59C198.105 158.917 198.105 159.267 198.105 159.64C198.105 159.92 198.105 160.2 198.105 160.48C198.152 160.713 198.198 160.97 198.245 161.25C198.245 161.39 198.245 161.553 198.245 161.74C198.292 161.88 198.315 162.02 198.315 162.16C198.268 162.58 198.292 163 198.385 163.42C198.478 163.84 198.548 164.26 198.595 164.68L199.015 166.5C199.062 166.687 199.108 166.897 199.155 167.13C199.202 167.317 199.248 167.527 199.295 167.76C199.342 167.947 199.342 168.133 199.295 168.32C199.295 168.46 199.272 168.623 199.225 168.81C199.225 168.857 199.178 168.927 199.085 169.02C198.852 169.067 198.688 169.23 198.595 169.51C198.455 169.837 198.245 170.117 197.965 170.35C197.732 170.63 197.475 170.887 197.195 171.12C197.148 171.167 197.055 171.213 196.915 171.26C196.775 171.307 196.658 171.353 196.565 171.4ZM199.295 146.9H199.435C199.948 146.807 200.462 146.713 200.975 146.62C201.535 146.48 202.072 146.317 202.585 146.13C203.098 145.99 203.542 145.733 203.915 145.36C204.242 145.033 204.405 144.66 204.405 144.24C204.452 143.913 204.452 143.61 204.405 143.33C204.405 143.003 204.358 142.677 204.265 142.35C204.078 141.51 203.868 140.693 203.635 139.9C203.402 139.06 203.122 138.267 202.795 137.52L202.165 135.84C202.025 135.373 201.862 134.93 201.675 134.51C201.488 134.043 201.278 133.6 201.045 133.18C200.998 133.087 200.952 132.993 200.905 132.9C200.858 132.76 200.812 132.643 200.765 132.55L200.485 132.27C200.345 132.083 200.182 132.083 199.995 132.27C199.948 132.27 199.878 132.317 199.785 132.41C199.458 132.83 199.155 133.273 198.875 133.74C198.642 134.207 198.502 134.72 198.455 135.28C198.408 135.467 198.362 135.653 198.315 135.84C198.315 136.027 198.315 136.237 198.315 136.47V139.48C198.268 140.133 198.245 140.81 198.245 141.51C198.292 142.21 198.268 142.887 198.175 143.54C198.128 143.68 198.105 143.82 198.105 143.96C198.152 144.1 198.175 144.24 198.175 144.38C198.222 144.66 198.245 144.94 198.245 145.22C198.245 145.453 198.245 145.71 198.245 145.99C198.245 146.457 198.292 146.737 198.385 146.83C198.525 146.923 198.828 146.947 199.295 146.9ZM234.844 170.98C234.517 170.98 234.12 170.863 233.654 170.63C233.42 170.49 233.234 170.303 233.094 170.07C233.047 169.93 232.93 169.93 232.744 170.07C232.604 170.163 232.487 170.163 232.394 170.07C232.254 169.93 232.114 169.837 231.974 169.79C231.787 169.79 231.694 169.72 231.694 169.58C231.694 169.44 231.67 169.323 231.624 169.23C231.624 169.09 231.577 168.973 231.484 168.88C231.204 168.787 231.017 168.553 230.924 168.18C230.877 168.04 230.83 167.923 230.784 167.83C230.737 167.69 230.667 167.55 230.574 167.41C230.48 167.223 230.434 167.06 230.434 166.92C230.387 166.78 230.34 166.663 230.294 166.57C230.294 166.43 230.247 166.29 230.154 166.15C230.107 165.823 230.014 165.52 229.874 165.24C229.734 164.96 229.617 164.657 229.524 164.33C229.43 164.143 229.384 163.887 229.384 163.56C229.384 162.72 229.524 161.95 229.804 161.25C230.037 160.83 230.107 160.41 230.014 159.99C229.967 159.803 229.967 159.617 230.014 159.43C230.107 159.243 230.13 159.057 230.084 158.87C230.037 158.683 229.99 158.52 229.944 158.38C229.944 158.24 229.944 158.077 229.944 157.89C229.897 157.797 229.874 157.68 229.874 157.54C229.874 157.26 229.874 156.98 229.874 156.7C229.874 156.373 229.827 156.047 229.734 155.72C229.687 155.58 229.664 155.37 229.664 155.09V152.5C229.617 151.893 229.547 151.287 229.454 150.68C229.36 150.073 229.244 149.467 229.104 148.86C229.104 148.72 229.08 148.58 229.034 148.44C229.034 148.3 229.034 148.16 229.034 148.02C229.034 146.993 228.87 145.99 228.544 145.01V144.38C228.637 143.867 228.59 143.47 228.404 143.19C228.357 143.003 228.334 142.747 228.334 142.42V142.35C228.334 141.883 228.31 141.417 228.264 140.95C228.264 140.483 228.287 140.017 228.334 139.55C228.427 138.71 228.427 137.823 228.334 136.89C228.334 136.517 228.334 136.143 228.334 135.77C228.334 135.397 228.31 135.047 228.264 134.72V134.3C228.357 134.067 228.404 133.857 228.404 133.67C228.404 133.483 228.404 133.297 228.404 133.11C228.404 132.55 228.38 132.013 228.334 131.5C228.334 130.94 228.287 130.403 228.194 129.89C228.194 129.75 228.194 129.61 228.194 129.47C228.194 129.283 228.17 129.12 228.124 128.98C228.124 128.653 228.007 128.373 227.774 128.14L227.284 127.72C226.817 127.44 226.514 126.997 226.374 126.39C226.327 126.297 226.304 126.227 226.304 126.18C226.304 126.087 226.28 125.993 226.234 125.9C226.14 125.667 226.187 125.457 226.374 125.27C226.514 125.083 226.607 124.897 226.654 124.71C226.654 124.57 226.677 124.453 226.724 124.36C226.817 124.22 226.887 124.08 226.934 123.94C226.98 123.8 227.027 123.637 227.074 123.45C227.167 123.31 227.237 123.263 227.284 123.31C227.61 123.31 227.844 123.263 227.984 123.17C228.31 122.937 228.66 122.89 229.034 123.03C229.127 123.077 229.267 123.053 229.454 122.96C229.5 122.96 229.524 122.937 229.524 122.89C229.757 122.657 230.014 122.54 230.294 122.54C230.574 122.493 230.877 122.493 231.204 122.54C231.25 122.54 231.297 122.563 231.344 122.61C231.39 122.61 231.437 122.61 231.484 122.61C231.857 122.703 232.207 122.797 232.534 122.89C232.907 122.937 233.257 122.937 233.584 122.89C233.817 122.89 234.05 122.913 234.284 122.96C234.564 123.007 234.82 123.03 235.054 123.03C235.24 123.03 235.404 123.053 235.544 123.1C235.73 123.147 235.894 123.193 236.034 123.24C236.22 123.287 236.384 123.357 236.524 123.45C236.664 123.497 236.827 123.52 237.014 123.52C237.247 123.567 237.434 123.613 237.574 123.66C237.76 123.707 237.947 123.777 238.134 123.87C238.74 124.197 239.347 124.5 239.954 124.78C240.234 124.92 240.49 125.107 240.724 125.34C241.05 125.573 241.33 125.713 241.564 125.76C241.61 125.76 241.657 125.783 241.704 125.83C241.75 125.83 241.797 125.83 241.844 125.83C241.89 125.877 241.937 125.9 241.984 125.9C242.03 125.9 242.077 125.923 242.124 125.97C242.357 126.203 242.637 126.39 242.964 126.53C243.337 126.623 243.64 126.787 243.874 127.02C243.967 127.113 244.107 127.207 244.294 127.3C244.667 127.44 244.994 127.65 245.274 127.93C245.367 128.023 245.437 128.07 245.484 128.07C245.67 128.07 245.88 128.187 246.114 128.42L247.584 129.96C247.77 130.147 247.91 130.31 248.004 130.45C248.237 130.777 248.494 131.08 248.774 131.36C249.054 131.64 249.334 131.92 249.614 132.2C249.707 132.293 249.8 132.41 249.894 132.55C250.034 132.643 250.127 132.76 250.174 132.9C250.22 132.993 250.29 133.087 250.384 133.18C250.477 133.227 250.547 133.297 250.594 133.39C251.107 133.95 251.597 134.533 252.064 135.14C252.577 135.747 253.044 136.377 253.464 137.03C253.697 137.357 253.907 137.707 254.094 138.08C254.28 138.453 254.444 138.827 254.584 139.2C254.724 139.527 254.864 139.853 255.004 140.18C255.19 140.507 255.354 140.833 255.494 141.16C255.634 141.673 255.797 142.14 255.984 142.56C256.17 143.167 256.357 143.75 256.544 144.31C256.73 144.87 256.894 145.477 257.034 146.13L257.244 147.04C257.244 147.413 257.244 147.81 257.244 148.23C257.29 148.603 257.314 149 257.314 149.42C257.314 149.607 257.29 149.77 257.244 149.91C257.244 150.05 257.197 150.213 257.104 150.4C257.01 150.68 256.964 150.937 256.964 151.17C256.917 151.637 256.8 152.08 256.614 152.5C256.474 152.92 256.31 153.317 256.124 153.69C255.704 154.437 255.33 155.183 255.004 155.93C254.91 156.117 254.817 156.303 254.724 156.49C254.677 156.63 254.607 156.793 254.514 156.98L254.094 157.82C253.767 158.473 253.37 159.127 252.904 159.78C252.484 160.387 252.017 160.97 251.504 161.53C251.317 161.763 251.084 161.997 250.804 162.23C250.57 162.417 250.337 162.627 250.104 162.86C249.637 163.28 249.17 163.7 248.704 164.12C248.237 164.493 247.747 164.867 247.234 165.24C246.767 165.567 246.277 165.87 245.764 166.15C245.297 166.43 244.784 166.663 244.224 166.85C243.944 166.897 243.664 167.037 243.384 167.27C243.104 167.457 242.8 167.643 242.474 167.83C242.194 168.017 241.89 168.227 241.564 168.46C241.424 168.507 241.284 168.577 241.144 168.67C241.004 168.717 240.84 168.763 240.654 168.81C240.514 168.857 240.35 168.903 240.164 168.95C240.024 168.997 239.884 169.043 239.744 169.09C239.557 169.137 239.37 169.207 239.184 169.3C239.044 169.393 238.904 169.51 238.764 169.65C238.437 169.883 238.087 170.07 237.714 170.21C237.34 170.397 236.967 170.607 236.594 170.84C236.5 170.887 236.337 170.91 236.104 170.91C235.964 170.957 235.824 170.957 235.684 170.91C235.544 170.91 235.404 170.91 235.264 170.91V170.98H234.844ZM237.644 163.14C238.11 163.14 238.507 163.047 238.834 162.86C239.207 162.72 239.557 162.557 239.884 162.37C240.21 162.183 240.514 161.973 240.794 161.74L241.634 160.9C242.1 160.527 242.52 160.13 242.894 159.71C243.314 159.29 243.757 158.917 244.224 158.59C244.317 158.497 244.364 158.45 244.364 158.45C244.55 158.263 244.714 158.1 244.854 157.96C245.04 157.773 245.204 157.587 245.344 157.4C245.437 157.307 245.554 157.19 245.694 157.05C245.834 156.91 245.927 156.793 245.974 156.7C246.16 156.373 246.417 156.093 246.744 155.86C246.977 155.72 247.117 155.58 247.164 155.44C247.257 155.207 247.374 154.973 247.514 154.74C247.7 154.507 247.887 154.297 248.074 154.11C248.307 153.83 248.54 153.41 248.774 152.85L249.054 152.15C249.334 151.497 249.474 150.89 249.474 150.33C249.52 150.19 249.544 149.98 249.544 149.7C249.59 149 249.544 148.253 249.404 147.46C249.357 147.227 249.31 146.993 249.264 146.76C249.217 146.527 249.194 146.317 249.194 146.13C249.147 145.943 249.1 145.78 249.054 145.64C249.054 145.453 249.007 145.29 248.914 145.15C248.82 144.963 248.75 144.777 248.704 144.59C248.657 144.403 248.61 144.217 248.564 144.03C248.564 143.703 248.517 143.423 248.424 143.19C248.33 142.91 248.237 142.63 248.144 142.35C248.004 142.07 247.864 141.79 247.724 141.51C247.584 141.183 247.467 140.857 247.374 140.53L247.304 140.25C247.164 140.063 247.047 139.877 246.954 139.69C246.907 139.457 246.837 139.247 246.744 139.06C246.557 138.64 246.37 138.22 246.184 137.8C246.044 137.38 245.857 136.983 245.624 136.61C245.39 136.19 245.134 135.77 244.854 135.35C244.62 134.93 244.317 134.557 243.944 134.23C242.87 133.063 241.634 132.013 240.234 131.08C239.394 130.473 238.554 130.077 237.714 129.89C237.387 129.797 237.014 129.727 236.594 129.68C236.174 129.587 235.777 129.517 235.404 129.47C235.264 129.47 235.147 129.517 235.054 129.61C234.82 129.797 234.704 130.03 234.704 130.31C234.704 130.637 234.68 130.987 234.634 131.36C234.634 131.687 234.634 132.037 234.634 132.41C234.727 133.063 234.704 133.6 234.564 134.02C234.517 134.207 234.47 134.393 234.424 134.58C234.424 134.767 234.447 134.977 234.494 135.21C234.587 135.49 234.564 135.747 234.424 135.98C234.284 136.26 234.284 136.563 234.424 136.89C234.61 137.263 234.657 137.73 234.564 138.29C234.424 138.85 234.424 139.41 234.564 139.97C234.61 140.157 234.634 140.343 234.634 140.53C234.68 140.717 234.68 140.927 234.634 141.16C234.634 141.673 234.657 142.187 234.704 142.7C234.797 143.213 234.867 143.727 234.914 144.24C234.914 144.333 234.96 144.473 235.054 144.66V145.78C235.054 145.873 235.03 145.99 234.984 146.13C234.984 146.223 235.007 146.317 235.054 146.41C235.147 146.783 235.217 147.18 235.264 147.6C235.357 147.973 235.45 148.347 235.544 148.72C235.544 148.813 235.567 148.93 235.614 149.07C235.66 149.163 235.684 149.28 235.684 149.42C235.684 149.747 235.707 150.073 235.754 150.4C235.8 150.727 235.847 151.077 235.894 151.45C236.034 152.757 236.244 154.087 236.524 155.44C236.664 156 236.734 156.583 236.734 157.19C236.734 157.33 236.734 157.493 236.734 157.68C236.734 157.82 236.757 157.96 236.804 158.1C236.897 158.427 236.944 158.753 236.944 159.08C236.944 159.407 236.944 159.733 236.944 160.06C236.944 160.153 236.92 160.27 236.874 160.41C236.874 160.55 236.897 160.667 236.944 160.76C237.037 160.993 237.084 161.227 237.084 161.46C237.084 161.647 237.084 161.857 237.084 162.09C237.084 162.277 237.13 162.51 237.224 162.79C237.224 163.023 237.364 163.14 237.644 163.14Z" fill="white"/>
<circle cx="17.5" cy="19.5" r="6.5" fill="#FF3B30"/>
<circle cx="34.5" cy="19.5" r="6.5" fill="#FFCC00"/>
<circle cx="51.5" cy="19.5" r="6.5" fill="#34C759"/>
<defs>
<filter id="filter0_d" x="0" y="0" width="288" height="40" filterUnits="userSpaceOnUse" color-interpolation-filters="sRGB">
<feFlood flood-opacity="0" result="BackgroundImageFix"/>
<feColorMatrix in="SourceAlpha" type="matrix" values="0 0 0 0 0 0 0 0 0 0 0 0 0 0 0 0 0 0 127 0"/>
<feOffset dy="1"/>
<feGaussianBlur stdDeviation="0.5"/>
<feColorMatrix type="matrix" values="0 0 0 0 0 0 0 0 0 0 0 0 0 0 0 0 0 0 0.25 0"/>
<feBlend mode="normal" in2="BackgroundImageFix" result="effect1_dropShadow"/>
<feBlend mode="normal" in="SourceGraphic" in2="effect1_dropShadow" result="shape"/>
</filter>
<clipPath id="clip0">
<rect width="114" height="114" fill="white" transform="translate(199 13)"/>
</clipPath>
</defs>
</svg>
