<?xml version="1.0" encoding="utf-8"?>
<!-- Generator: Adobe Illustrator 23.0.6, SVG Export Plug-In . SVG Version: 6.00 Build 0)  -->
<svg version="1.1" id="Layer_1" xmlns="http://www.w3.org/2000/svg" xmlns:xlink="http://www.w3.org/1999/xlink" x="0px" y="0px"
	 viewBox="0 0 595.3 841.9" style="enable-background:new 0 0 595.3 841.9;" xml:space="preserve">
<style type="text/css">
	.st0{fill:#FFFFFF;stroke:#000000;stroke-width:6;stroke-miterlimit:10;}
	.st1{fill:#EE3424;}
</style>
<g>
	<g>
	</g>
</g>
<g>
	<path class="st0" d="M504.2,537.6H111.8c-6.6,0-12-5.4-12-12V261.7c0-6.6,5.4-12,12-12h392.5c6.6,0,12,5.4,12,12v263.9
		C516.2,532.2,510.8,537.6,504.2,537.6z"/>
	<polygon class="st0" points="99.8,529.9 516.2,529.9 528.3,545.3 89.9,545.3 	"/>
	<rect x="87.4" y="541" class="st0" width="443.4" height="12.8"/>
	<g>
		<g>
			<path d="M209.7,356.7l-17.8-2.1v-5.5h37v5.5l-16.4,2.1H209.7z M256.7,349.1h4.4l24.8,76.9h-3.4l21.2-76.9h6.9l-24.9,92.7h-5.5
				l-26.3-78.2h4.4l-24.7,78.2h-5.3l-26.7-92.7h12.7l20.7,76.9h-3.8L256.7,349.1z M258,356.7l-17.5-2.1v-5.5h37v5.5l-16.7,2.1H258z
				 M303.3,356.7l-14.4-2.1v-5.5h31.2v5.5l-14.1,2.1H303.3z"/>
		</g>
	</g>
	<g>
		<g>
			<path class="st1" d="M333.4,354.6v-5.5h19.2v7.5h-1.4L333.4,354.6z M352.6,433.4v7.5h-19.2v-5.5l17.8-2.1H352.6z M346.4,391.6
				c0-14.1,0-28.4-0.4-42.5h13.2c-0.4,13.8-0.4,28.1-0.4,42.5v4.8c0,16.2,0,30.4,0.4,44.5H346c0.4-13.8,0.4-28.1,0.4-42.5V391.6z
				 M352.6,390.4h13.6c16.9,0,24.1-5.3,24.1-17.9s-7.3-17-21.4-17h-16.3v-6.3h20.3c18.8,0,29.7,9.3,29.7,22.5
				c0,10.7-7.4,20.1-25.6,22.3v-1.2c21.4,1.8,30.1,11.4,30.1,23.2c0,12.5-10.3,25.1-36.2,25.1h-18.4v-6.3h15.1
				c17.8,0,26.4-6.7,26.4-18.8c0-12.7-8.4-19.2-27.5-19.2h-14V390.4z"/>
		</g>
	</g>
	<path class="st1" d="M258.8,521.6l17.8-11.8c0,0,3,10.3,0,19.9L258.8,521.6z"/>
	<path class="st1" d="M282.2,509.8h48.3c0,0,5.8,9.3,0,19.9h-48.3C282.2,529.7,287.3,517.9,282.2,509.8z"/>
	<g>
		<g>
		</g>
	</g>
	<path d="M347.8,521.7l17.1-12.1c0,0,2.9,10.5,0,20.4L347.8,521.7z"/>
	<path d="M370.4,509.6h46.5c0,0,5.6,9.5,0,20.4h-46.5C370.4,529.9,375.2,517.9,370.4,509.6z"/>
</g>
</svg>
